<svg version="1.1" id="Layer_1" xmlns="http://www.w3.org/2000/svg" xmlns:xlink="http://www.w3.org/1999/xlink" x="0px" y="0px"
	 width="100%" viewBox="0 0 204 229" enable-background="new 0 0 204 229" xml:space="preserve">
<path fill="transparent" opacity="1.000000" stroke="none" 
	d="
M68.237259,229.589615 
	C46.677460,230.000000 25.354713,229.957199 4.032658,230.059067 
	C1.615667,230.070618 0.927951,229.617325 0.930925,227.035339 
	C1.016496,152.739700 1.024500,78.443916 0.910819,4.148355 
	C0.906250,1.162532 1.785341,0.934984 4.348567,0.938041 
	C70.148499,1.016520 135.948578,1.021905 201.748474,0.923615 
	C204.513550,0.919484 205.080627,1.467486 205.077011,4.245398 
	C204.980240,78.374420 204.966354,152.503647 205.109283,226.632523 
	C205.115753,229.986588 203.989136,230.054962 201.370728,230.050705 
	C157.559677,229.979675 113.748482,230.000000 69.468658,230.000000 
	C68.737923,229.161392 69.014542,228.374130 69.373611,227.190399 
	C73.009644,221.137512 72.653282,214.830688 72.593216,208.566101 
	C72.571129,206.262558 72.460274,203.949570 72.770004,201.657211 
	C73.079842,199.364090 74.129784,197.948105 77.112091,198.728302 
	C81.105003,200.893417 84.733627,202.884308 89.354660,200.528320 
	C93.553841,199.102951 96.827919,196.890503 99.719772,194.059265 
	C101.027695,192.778778 102.346046,191.495590 104.582993,190.983185 
	C105.697182,190.856552 106.434059,190.929504 107.509186,191.227875 
	C110.537239,193.031693 111.039795,196.705032 114.333878,198.289856 
	C118.401817,201.433975 122.598633,202.441635 127.617477,201.164581 
	C137.704514,198.586823 140.128952,190.882294 141.571777,182.008484 
	C158.735016,172.534607 172.269958,159.905670 181.810364,143.010086 
	C200.639328,109.664948 194.317261,64.304497 167.752472,36.886875 
	C151.792694,20.414711 132.714371,10.828994 110.281281,8.719481 
	C84.452667,6.290668 61.231819,13.499288 41.445736,30.846645 
	C24.156652,46.004772 13.751989,64.923889 11.013371,87.652016 
	C7.764957,114.611008 14.587261,138.796692 32.756294,159.449570 
	C41.812984,169.744385 52.582592,177.651001 64.980087,183.408432 
	C66.502869,184.115631 68.013443,184.821762 68.956734,186.846649 
	C69.991737,200.320099 69.578957,213.399216 69.212708,226.932068 
	C68.925323,227.999832 68.722816,228.597290 68.237259,229.589615 
z"/>
<path fill="#3AAEA1" opacity="1.000000" stroke="none" 
	d="
M68.250000,230.000000 
	C67.991859,229.544495 67.983719,229.088974 68.062820,228.302841 
	C68.494804,227.641922 68.905075,227.528351 69.654320,227.790680 
	C69.654282,228.464142 69.372078,228.949631 69.044937,229.717560 
	C69.000000,230.000000 68.500000,230.000000 68.250000,230.000000 
z"/>
<path fill="#26A877" opacity="1.000000" stroke="none" 
	d="
M68.250862,185.735703 
	C36.970200,172.748383 17.265722,149.930237 10.520133,116.760582 
	C0.038990,65.222328 36.782303,14.526120 89.014755,7.885768 
	C148.322021,0.345990 198.866638,47.954567 193.617126,107.370842 
	C190.630997,141.169144 173.194183,166.204361 142.709030,182.196228 
	C138.246979,181.609787 138.785645,177.835999 137.619476,174.834152 
	C138.441376,172.524551 140.509750,171.993393 142.169128,170.483170 
	C146.737396,168.728897 150.281509,166.021011 153.933929,162.880096 
	C155.134842,161.752747 156.101425,160.860321 157.265656,159.697906 
	C158.325623,158.743896 159.303604,158.227768 160.375015,157.285431 
	C162.665329,154.337036 165.126740,151.956131 167.282898,148.876678 
	C169.350769,146.468719 170.757309,144.040726 172.294464,141.259491 
	C180.186295,126.957901 184.560791,112.003647 183.576599,96.023201 
	C182.367554,76.391975 175.770386,58.792244 161.940613,44.219887 
	C151.523148,33.243069 139.536209,25.015005 124.836411,20.948755 
	C121.943214,20.148445 119.066422,19.380566 115.702026,19.016506 
	C112.945518,17.865837 110.304214,19.310305 107.572166,18.054432 
	C103.193642,16.873791 99.132805,17.308924 94.707825,17.737877 
	C93.842293,17.984167 93.338371,18.082645 92.448715,18.200359 
	C89.273163,18.221279 86.594330,18.878212 83.570816,19.740536 
	C82.006622,20.186747 80.739128,20.256855 79.209442,20.847473 
	C45.154041,29.192450 16.814077,64.103325 19.461046,105.004913 
	C20.216366,116.676270 23.487961,127.946846 29.289978,138.696350 
	C29.777723,139.659561 30.068277,140.310959 30.605682,141.219086 
	C33.067020,144.750977 34.696514,148.473175 38.121544,151.265961 
	C41.065033,154.085480 42.335674,157.972168 46.148247,160.012177 
	C48.097389,161.916519 49.611240,163.805435 51.982941,165.229736 
	C53.848888,166.554886 55.451328,167.685318 57.394817,168.901459 
	C59.150387,170.050186 60.564518,171.125107 62.522057,171.956696 
	C65.091225,173.301773 67.471321,174.250763 70.020729,175.642212 
	C71.051865,177.318832 70.459511,178.696060 70.005920,180.424408 
	C69.606804,181.654648 69.301994,182.542160 69.130081,183.831177 
	C68.945526,184.645309 68.759506,185.082367 68.250862,185.735703 
z"/>
<path fill="#24A677" opacity="1.000000" stroke="none" 
	d="
M105.275673,191.389648 
	C101.173386,193.553574 99.186302,197.742264 95.167519,199.384125 
	C93.726089,199.972992 92.555374,201.244919 90.434906,201.101868 
	C88.862694,200.159668 88.837395,198.805191 89.010841,197.040955 
	C89.285309,195.355682 90.866066,194.692429 90.730919,193.033997 
	C85.656120,191.151093 80.072304,191.373901 74.648758,189.337357 
	C71.761719,185.757584 72.582565,182.468277 74.835327,178.947815 
	C77.464127,177.542023 79.664352,178.667862 81.869560,179.185699 
	C85.704926,180.086349 89.510834,181.099426 93.811272,180.842651 
	C93.671951,178.190765 91.422562,177.149002 90.348511,175.001923 
	C89.636810,172.508499 89.431000,170.413315 91.531616,168.449799 
	C92.142998,168.191895 92.400093,168.124664 93.047028,168.034058 
	C93.688957,168.041275 93.941025,168.071869 94.549850,168.212463 
	C100.062134,171.473434 102.909225,176.036911 103.640137,182.269775 
	C105.340813,183.366867 105.969086,184.723022 106.238312,186.711517 
	C106.332764,188.490707 106.251442,189.845657 105.275673,191.389648 
z"/>
<path fill="#19A393" opacity="1.000000" stroke="none" 
	d="
M76.533020,178.704254 
	C73.982315,181.589462 73.419426,184.577423 74.751053,188.169586 
	C76.421967,190.591354 78.757446,192.071854 79.699463,195.059799 
	C80.098953,197.168045 79.682137,198.698212 78.208847,200.257950 
	C75.412651,199.272064 73.844337,198.829391 74.014214,202.771179 
	C74.257332,208.412109 73.988937,214.090942 73.638931,219.734970 
	C73.462769,222.575562 72.095161,225.155563 70.206352,227.752365 
	C69.539474,227.972534 69.142471,227.966431 68.447754,227.966278 
	C68.090202,214.287476 68.030342,200.602753 67.976982,186.446518 
	C67.989655,185.536163 67.995819,185.097321 68.007645,184.329071 
	C68.747986,183.311111 68.414940,182.368011 68.789276,181.283096 
	C69.283806,179.700195 69.586838,178.382080 69.963806,176.730972 
	C69.085213,175.394073 69.662140,174.410889 70.303581,173.089752 
	C73.279556,170.702148 75.730400,168.063431 79.954224,168.251709 
	C82.019737,169.282059 82.129875,170.880127 82.095726,172.909988 
	C81.292297,176.009460 79.084740,177.267853 76.533020,178.704254 
z"/>
<path fill="#28A978" opacity="1.000000" stroke="none" 
	d="
M105.359177,191.781921 
	C104.994064,190.387100 104.997330,189.085510 105.000908,187.392868 
	C107.001633,184.827866 108.478676,182.067230 111.948059,181.029083 
	C118.592560,179.929230 124.781670,178.607635 130.960022,175.746979 
	C135.678925,177.541183 136.686249,180.976242 135.668823,185.647339 
	C129.919754,190.092133 123.278419,190.769974 116.410797,191.881439 
	C115.554802,191.746857 114.928490,191.671722 114.698105,191.293442 
	C112.413559,187.542313 110.496628,189.173767 108.307693,191.813339 
	C107.245964,191.940628 106.486755,191.907883 105.359177,191.781921 
z"/>
<path fill="#3BB356" opacity="1.000000" stroke="none" 
	d="
M134.800690,186.143829 
	C135.511963,182.139496 134.353317,178.994614 131.426086,176.188660 
	C129.330246,176.830750 128.135681,175.759338 126.738846,174.327652 
	C126.012848,172.035187 126.627586,170.383972 128.235748,168.719971 
	C131.213058,168.188614 133.533752,168.968597 135.908173,170.790054 
	C136.901245,171.727356 137.521103,172.488266 137.960449,173.778351 
	C139.250977,176.706726 140.494736,179.270416 142.050903,182.038925 
	C141.928787,184.821152 141.681580,187.447556 141.023041,189.966385 
	C139.346359,196.379578 134.971481,200.213776 128.408417,202.157257 
	C126.838089,201.123840 126.804977,199.740616 126.899292,197.938766 
	C128.927277,193.454498 133.744156,191.314240 134.800690,186.143829 
z"/>
<path fill="#3BB367" opacity="1.000000" stroke="none" 
	d="
M127.464233,196.286453 
	C127.872337,198.049408 127.940186,199.623764 128.019745,201.671295 
	C122.979942,203.725296 118.403259,202.617981 113.927444,199.408585 
	C114.252045,197.395599 115.256027,195.970703 116.943268,194.600281 
	C120.664902,194.413223 123.787971,195.883759 127.464233,196.286453 
z"/>
<path fill="#1FA789" opacity="1.000000" stroke="none" 
	d="
M78.120987,200.708954 
	C78.236130,198.963226 78.608383,197.442978 78.987862,195.533600 
	C82.533905,193.720047 85.909950,196.204071 89.712204,195.828583 
	C90.014252,197.491119 90.019585,198.903503 90.042130,200.739334 
	C86.105492,204.160553 82.247467,202.257202 78.120987,200.708954 
z"/>
<path fill="#35B071" opacity="1.000000" stroke="none" 
	d="
M117.124557,194.489883 
	C116.060165,196.128922 116.486938,198.336197 114.070786,199.054779 
	C110.863602,197.814713 109.585815,195.180405 108.108734,192.300201 
	C108.300171,189.206070 110.586220,188.106766 112.475174,186.285873 
	C113.324257,187.826263 114.020241,189.088898 114.848969,190.647827 
	C115.888832,191.900635 117.011749,192.708908 117.124557,194.489883 
z"/>
<path fill="#010101" opacity="1.000000" stroke="none" 
	d="
M114.833786,17.812199 
	C146.966232,21.036430 176.488800,49.097168 183.059982,81.990257 
	C187.270370,103.066116 184.233093,122.916069 173.263855,141.790649 
	C170.156677,141.765930 170.851456,138.869202 169.432373,137.146179 
	C168.868164,135.847748 168.491562,134.830124 167.588379,133.733322 
	C166.613876,132.464355 165.865494,131.423264 164.624603,130.374756 
	C162.010742,128.099396 159.920166,125.654320 156.391541,124.731667 
	C150.122665,122.957962 144.421280,120.614738 138.396729,118.119659 
	C136.796738,117.362755 135.454636,116.891617 133.946442,115.966248 
	C132.072327,114.457405 130.437180,113.251976 127.886307,113.220810 
	C126.037384,113.060730 124.619759,112.669373 122.982224,111.730591 
	C120.411118,109.575462 119.893990,106.614487 118.245392,103.860260 
	C116.165054,96.806015 119.910881,90.931541 120.880676,84.266785 
	C121.135513,83.402573 121.349846,82.943855 121.837578,82.221619 
	C123.049538,80.658966 124.816238,80.336365 125.881973,78.655396 
	C126.150513,78.156471 126.258591,77.955208 126.539169,77.454132 
	C129.178314,73.720558 130.155945,70.008484 128.789719,65.485191 
	C129.543304,58.256603 131.506454,51.495193 130.225159,44.120087 
	C129.719284,39.108597 129.095078,34.533520 125.823898,30.454857 
	C125.235764,29.866184 124.934822,29.503193 124.498352,28.811897 
	C123.784378,27.339502 123.705734,25.909582 122.191727,24.933029 
	C121.579445,24.472132 121.237091,24.198793 120.645943,23.710922 
	C119.553665,22.773401 118.609779,22.256912 117.169937,21.981174 
	C116.616844,21.816601 116.398094,21.734760 115.876129,21.468685 
	C115.017616,20.798582 114.632370,20.203850 114.402451,19.130989 
	C114.443161,18.534142 114.508301,18.300373 114.833786,17.812199 
z"/>
<path fill="#000101" opacity="1.000000" stroke="none" 
	d="
M29.214390,140.244003 
	C16.687952,118.895248 14.729370,96.476723 22.320324,73.634171 
	C31.439600,46.192642 50.291389,28.080425 78.505234,19.520191 
	C79.298470,19.761288 79.591568,20.150007 79.800690,20.997650 
	C79.678955,24.865652 75.806923,24.928047 74.173828,27.501593 
	C73.476189,28.373165 73.119850,29.035227 73.515839,30.164474 
	C73.844055,31.787872 73.353951,33.035313 73.107773,34.657143 
	C72.985252,35.224274 72.927643,35.451744 72.761665,36.018440 
	C72.407471,37.039936 72.134789,37.712887 71.861023,38.781555 
	C71.061874,43.285900 71.521645,47.458168 71.394508,51.998783 
	C71.144547,54.716640 71.764023,56.901485 72.637016,59.428299 
	C72.920937,60.549168 72.935440,61.307472 72.669052,62.423073 
	C72.158440,63.435715 71.572685,63.872471 70.592834,64.378853 
	C69.701370,64.878395 68.668785,64.410736 68.514709,65.391548 
	C68.456871,65.759758 69.063393,65.976730 69.656342,66.436142 
	C70.204025,66.977295 70.414062,67.354187 70.520279,68.101517 
	C70.673347,68.918411 69.350685,68.984360 70.266556,69.962006 
	C70.380615,70.469437 70.377205,70.684021 70.274323,71.205353 
	C69.790703,72.355377 69.720894,73.126259 70.960602,73.819656 
	C71.439384,74.092735 71.627617,74.208656 72.072655,74.535400 
	C72.767868,75.246651 73.090309,75.819794 73.505692,76.711395 
	C74.177200,78.546898 74.286369,80.367393 76.521812,81.157784 
	C77.423126,81.672249 77.940598,82.129547 78.550781,82.997406 
	C79.357658,84.926079 79.221893,86.624451 79.288055,88.646881 
	C79.328445,89.658432 79.347054,90.326141 79.601120,91.286484 
	C79.924385,92.192764 80.148376,92.791939 80.528725,93.671448 
	C80.717369,94.165588 80.782372,94.366547 80.918068,94.874550 
	C81.145668,96.417892 81.356911,97.634102 82.424171,98.876053 
	C82.775940,99.566811 82.906525,99.994461 83.040985,100.779572 
	C83.109528,101.837837 83.010040,102.533798 82.653595,103.540688 
	C82.352692,104.048325 82.199829,104.230354 81.758316,104.618408 
	C78.123650,106.339760 76.028297,108.943405 74.746124,112.700272 
	C74.349380,113.412598 74.057228,113.772285 73.434830,114.292664 
	C72.145660,115.014450 70.992119,115.120430 69.675262,115.766724 
	C68.985222,116.151085 68.584641,116.362724 67.861908,116.699661 
	C64.866814,117.431343 62.327465,118.567520 59.253246,118.893181 
	C58.110226,118.854111 57.289284,118.793114 56.303478,119.459015 
	C54.792599,120.453445 53.610111,121.414795 51.745407,121.699692 
	C50.251495,121.598083 49.349812,122.012360 48.552502,123.317924 
	C47.411434,124.659775 46.357445,125.538063 44.523636,125.692924 
	C42.376373,125.343605 40.609577,125.077042 39.969837,127.869606 
	C39.380142,129.244934 38.573029,130.070282 37.706757,131.274902 
	C35.184341,134.175293 33.891098,137.507843 31.247032,140.300415 
	C30.457972,140.601364 29.982693,140.587051 29.214390,140.244003 
z"/>
<path fill="#030202" opacity="1.000000" stroke="none" 
	d="
M71.769356,63.308968 
	C71.997841,62.246330 71.997040,61.488731 71.994186,60.352337 
	C71.052299,57.952118 71.475388,55.611130 70.258453,53.317753 
	C70.206055,48.224560 69.538651,43.389992 70.688560,38.300110 
	C71.433266,37.580643 71.509949,36.998287 71.821091,36.211624 
	C72.002197,35.984867 71.997551,35.507050 71.995468,35.268135 
	C72.208893,34.778252 72.482147,34.521168 72.527550,34.215546 
	C73.921135,24.832760 81.010063,21.417603 88.755569,18.664627 
	C89.676048,18.337463 90.625839,18.046797 91.737831,17.266098 
	C92.447380,16.966122 92.882401,16.910563 93.645416,16.893772 
	C98.396240,17.040169 102.819016,17.062056 107.652420,16.866430 
	C110.106056,18.484188 112.416306,16.171879 114.796989,17.399246 
	C115.075523,17.800875 115.056923,18.043959 115.015930,18.652048 
	C113.786880,20.055229 114.778305,20.315100 115.795532,20.824423 
	C116.020859,21.003227 116.505661,20.999844 116.748062,20.998789 
	C117.895874,22.120016 119.359856,22.018082 120.770866,22.803209 
	C121.341545,23.101690 121.592262,23.282679 121.887405,23.756725 
	C123.410316,24.780981 124.040855,26.170645 124.818886,27.857121 
	C125.105797,28.399590 125.274223,28.622419 125.694000,28.896345 
	C128.325409,33.151833 130.312210,37.467003 130.775543,42.695606 
	C133.319427,49.296391 131.669556,55.509048 130.599625,61.733093 
	C130.378387,63.020016 130.133926,64.302940 129.840286,66.032150 
	C129.261856,66.903809 128.992264,67.501884 128.488907,68.348167 
	C127.684395,69.325783 126.994438,69.920471 125.756943,70.251869 
	C123.597404,69.153572 124.190598,67.430412 124.195145,65.818642 
	C124.209251,60.824200 121.688515,56.973946 116.890533,55.312363 
	C113.681801,54.201145 111.456726,51.601967 108.069626,50.215054 
	C106.854012,49.713638 106.023079,49.242851 104.921600,48.528992 
	C102.225349,45.792221 99.243973,44.917583 95.488098,45.277336 
	C90.911758,45.443527 86.683075,45.597694 85.005280,51.019012 
	C84.723007,51.781548 84.511131,52.193302 84.053207,52.861080 
	C83.697830,53.310593 83.546944,53.482430 83.155334,53.894760 
	C82.749229,54.287415 82.583839,54.439568 82.170250,54.815258 
	C80.382881,56.338501 79.634285,58.234226 78.204872,60.014793 
	C77.833122,60.660515 77.680862,61.055550 77.553604,61.795029 
	C77.570923,63.964897 78.409904,65.798996 77.378647,67.953323 
	C76.520027,68.711540 75.794563,68.856949 74.642967,68.725662 
	C72.997742,68.092087 72.300171,67.019859 71.576218,65.487877 
	C71.340607,64.613426 71.372589,64.109352 71.769356,63.308968 
z"/>
<path fill="#082247" opacity="1.000000" stroke="none" 
	d="
M160.977295,157.613403 
	C160.196304,158.653183 159.467117,159.343857 158.470123,160.187897 
	C156.077621,157.658539 153.633926,155.709671 149.575836,156.850983 
	C148.583282,157.210846 147.901199,157.364120 146.890076,157.056915 
	C144.959961,153.985626 143.965195,150.867462 143.236710,147.396439 
	C140.721100,147.693802 139.475204,150.641647 136.856018,149.747803 
	C134.036789,148.785706 132.236969,146.613846 130.433365,144.504852 
	C128.681839,142.456741 126.742584,140.810654 124.260330,139.709915 
	C122.623047,138.983856 120.967117,138.087601 120.616142,135.657104 
	C125.588203,131.015945 132.011597,131.043808 137.587570,131.202438 
	C143.659866,131.375183 149.807587,130.544403 155.877396,131.585892 
	C157.675095,131.894333 159.529465,131.850647 161.491638,133.035080 
	C163.250000,139.152573 164.021866,145.044495 161.886703,151.303131 
	C161.942612,153.581177 161.451355,155.417236 160.977295,157.613403 
z"/>
<path fill="#062044" opacity="1.000000" stroke="none" 
	d="
M71.520729,172.976730 
	C71.158180,174.129883 70.732170,174.940918 70.171936,176.074951 
	C67.254204,176.090683 65.041733,174.422028 62.301231,173.098907 
	C59.475590,169.972565 59.786724,166.061676 58.554943,162.672256 
	C57.966084,161.051926 59.356567,160.031982 60.631268,159.112762 
	C67.695999,154.018127 73.882103,147.854752 80.737221,142.503922 
	C82.784286,140.906052 83.993736,138.803925 84.962509,136.080856 
	C86.372925,133.610306 88.954819,134.103973 90.989197,132.738770 
	C91.866829,132.126099 92.485458,131.775681 93.525139,131.500275 
	C94.945885,131.533829 95.592514,132.212387 96.302544,133.347839 
	C96.610504,134.108017 96.686600,134.564804 96.611542,135.367859 
	C96.810272,136.185516 95.176216,136.174805 96.441574,137.136124 
	C97.125954,138.460678 97.277740,139.592667 97.399040,141.080902 
	C97.241829,141.889404 97.024002,142.307571 96.513382,142.966217 
	C94.327888,146.308014 96.013596,149.895691 94.729721,153.407150 
	C94.160004,154.287979 93.514404,154.863586 92.930000,154.644455 
	C87.529213,152.619446 84.309555,156.586166 80.635208,159.128662 
	C79.141777,160.162048 77.801559,161.337402 76.046768,161.996826 
	C69.125999,164.597549 68.684738,165.688599 71.520729,172.976730 
z"/>
<path fill="#021A3B" opacity="1.000000" stroke="none" 
	d="
M46.149933,161.161377 
	C42.355797,159.314056 40.271328,156.090546 38.035000,152.565918 
	C36.548798,148.196930 39.177734,144.308792 38.650417,139.941299 
	C43.556637,136.235260 48.541664,134.711823 54.502960,137.333908 
	C56.551586,139.495743 54.270863,140.325363 53.374771,142.104309 
	C56.828041,141.578094 60.073792,139.775070 63.111946,142.144043 
	C64.761551,143.430313 65.764832,145.050522 66.126266,147.135040 
	C67.227631,153.487167 65.036003,157.202347 58.827393,158.702759 
	C58.026890,158.394348 57.701752,158.046600 57.458977,157.606644 
	C56.785439,156.386047 57.771130,154.255341 55.849716,153.833481 
	C53.646484,153.349762 52.852867,155.390320 51.571457,157.065369 
	C49.650818,158.473389 48.075935,159.778351 46.149933,161.161377 
z"/>
<path fill="#021C40" opacity="1.000000" stroke="none" 
	d="
M57.633884,158.088287 
	C64.294891,156.677185 67.440422,150.613037 64.432129,145.251175 
	C62.913963,142.545242 60.517502,141.174347 57.278919,142.416199 
	C56.503433,142.713562 55.764370,143.108154 55.015606,143.472534 
	C53.220299,144.346207 51.264851,143.856888 50.672489,142.333435 
	C49.857853,140.238327 52.084030,140.319748 53.439732,139.881180 
	C53.988007,139.703812 54.400909,139.107956 54.938850,138.352783 
	C55.314564,137.630020 55.702705,137.365082 56.507637,137.120895 
	C57.337555,137.023895 57.814182,137.041580 58.638752,137.175079 
	C59.681889,137.400177 60.363377,137.617081 61.445271,137.666916 
	C62.564857,137.674469 63.318798,137.678818 64.471764,137.655762 
	C71.838013,138.349335 78.556099,136.679764 85.662384,135.749207 
	C85.081497,141.629608 80.899773,144.630417 76.715935,147.696747 
	C73.278412,150.216095 69.464867,152.323975 66.998047,155.992645 
	C66.629814,156.540268 66.336922,157.402756 65.835648,157.557541 
	C56.723305,160.371017 61.251110,166.743866 61.987141,172.518280 
	C60.495739,172.040436 58.996811,171.164413 57.246601,170.073074 
	C55.177624,167.144485 52.795246,164.573456 54.913223,160.572525 
	C55.624123,159.348404 56.339314,158.650009 57.633884,158.088287 
z"/>
<path fill="#092341" opacity="1.000000" stroke="none" 
	d="
M39.018059,139.685577 
	C39.047646,140.979691 38.761742,142.165131 39.212685,142.895828 
	C40.707336,145.317734 41.818756,147.423340 38.278763,149.097977 
	C37.889008,149.282349 38.049667,150.630219 37.918755,151.851944 
	C33.826538,150.258591 32.670071,145.927567 30.091942,142.330902 
	C30.024204,141.415146 30.195488,140.882385 30.752739,140.207916 
	C32.510849,136.963577 33.740154,133.723480 36.577862,131.114136 
	C37.236725,130.642685 37.650337,130.465775 38.454498,130.514191 
	C40.087013,131.627945 39.528919,133.090576 39.651043,134.718140 
	C39.156773,136.450256 38.717239,137.857529 39.018059,139.685577 
z"/>
<path fill="#031C3C" opacity="1.000000" stroke="none" 
	d="
M146.729675,157.252899 
	C147.495026,156.739258 147.988831,156.476669 148.741943,156.107666 
	C151.700455,157.504639 154.147964,159.245941 155.128571,162.771454 
	C151.894653,166.604401 147.954041,169.170242 143.316986,171.357697 
	C141.184464,169.019272 142.696198,166.948471 143.893829,164.495377 
	C145.160019,162.830505 145.794617,161.324631 145.865723,159.225494 
	C146.028030,158.383423 146.212769,157.931580 146.729675,157.252899 
z"/>
<path fill="#08121A" opacity="1.000000" stroke="none" 
	d="
M91.609741,16.978268 
	C91.784546,19.343990 89.736855,19.775122 88.153679,20.324127 
	C81.540115,22.617546 75.345024,25.232412 73.852539,33.201485 
	C73.748718,33.755817 73.046822,34.198132 72.308212,34.860878 
	C72.300636,33.597576 72.607880,32.165932 72.947708,30.367472 
	C72.611984,29.612917 72.467842,29.154669 72.757278,28.312302 
	C73.009346,24.222380 76.953636,24.598475 78.847137,22.317076 
	C79.715584,20.399700 81.354233,19.968449 82.802383,18.813663 
	C85.692123,17.978376 88.449623,17.456617 91.609741,16.978268 
z"/>
<path fill="#03122B" opacity="1.000000" stroke="none" 
	d="
M169.573151,135.779449 
	C171.295639,137.612457 172.036041,139.519623 172.736328,141.786560 
	C171.936676,144.518784 170.534332,146.816818 168.444412,149.052277 
	C167.036499,149.319962 165.980057,149.097565 164.754272,148.131180 
	C163.405029,142.716370 164.852997,138.584000 169.573151,135.779449 
z"/>
<path fill="#011230" opacity="1.000000" stroke="none" 
	d="
M155.451843,162.987747 
	C153.154861,160.968750 151.126144,158.820343 149.049347,156.336578 
	C154.672409,154.124573 156.285416,154.761627 158.117310,159.954651 
	C157.374924,161.180283 156.547501,162.019318 155.451843,162.987747 
z"/>
<path fill="#020C1F" opacity="1.000000" stroke="none" 
	d="
M164.686920,148.069580 
	C165.923553,148.222305 166.837631,148.437286 167.960281,148.949738 
	C166.588715,152.550858 163.730515,154.836319 161.211792,157.791412 
	C159.004807,156.218796 160.534164,154.476181 160.975815,152.372833 
	C161.658691,150.306610 162.730743,148.977570 164.686920,148.069580 
z"/>
<path fill="#030E28" opacity="1.000000" stroke="none" 
	d="
M46.001137,161.552094 
	C46.684753,159.204987 47.913383,157.526047 50.641880,157.024673 
	C52.514027,156.735825 52.600327,157.907639 52.910210,159.273087 
	C52.739983,161.659180 53.445438,163.726242 52.227737,165.936905 
	C49.570221,165.345795 47.908367,163.538834 46.001137,161.552094 
z"/>
<path fill="#082246" opacity="1.000000" stroke="none" 
	d="
M144.718826,163.798370 
	C144.903122,166.379578 142.770142,168.138870 142.973846,171.036026 
	C141.741684,172.668961 140.350327,173.586700 138.335388,174.074677 
	C137.463898,173.588501 136.920547,173.033966 136.276428,172.207214 
	C136.040085,170.878159 136.538422,170.102554 137.568939,169.228516 
	C140.862488,168.200378 140.619537,163.434219 144.718826,163.798370 
z"/>
<path fill="#021A3B" opacity="1.000000" stroke="none" 
	d="
M52.104939,166.475800 
	C51.798626,164.285370 51.644432,162.370178 51.746414,160.228653 
	C52.997452,159.177612 54.094128,158.951233 55.656250,159.719879 
	C54.168152,163.273285 55.844818,166.167755 56.989235,169.489014 
	C55.415897,168.822174 53.836479,167.786591 52.104939,166.475800 
z"/>
<path fill="#08121A" opacity="1.000000" stroke="none" 
	d="
M107.715828,16.591843 
	C103.673271,19.182434 99.084114,17.905556 94.259254,17.239819 
	C98.386520,15.500032 102.883026,16.069723 107.715828,16.591843 
z"/>
<path fill="#030202" opacity="1.000000" stroke="none" 
	d="
M82.581245,18.528639 
	C82.731575,20.497080 80.975410,20.907127 79.317459,21.873505 
	C78.986519,21.444126 78.966896,20.876858 78.921371,19.880852 
	C80.006279,19.153790 81.117073,18.855465 82.581245,18.528639 
z"/>
<path fill="#030202" opacity="1.000000" stroke="none" 
	d="
M30.608343,140.000061 
	C30.788124,140.549179 30.630417,141.100418 30.236074,141.825745 
	C29.663736,141.537506 29.328035,141.075211 28.955900,140.321396 
	C29.369928,140.020645 29.820393,140.011414 30.608343,140.000061 
z"/>
<path fill="#3AAEA1" opacity="1.000000" stroke="none" 
	d="
M68.719322,181.220291 
	C68.830017,181.874557 68.679268,182.730789 68.270905,183.793365 
	C68.161491,183.140549 68.309685,182.281403 68.719322,181.220291 
z"/>
<path fill="#242921" opacity="1.000000" stroke="none" 
	d="
M95.818748,142.355347 
	C96.346275,141.870697 96.545174,141.726730 96.815964,141.385315 
	C97.135689,138.361816 97.454834,135.507629 98.430130,132.382309 
	C100.081985,130.978500 101.117851,131.723526 102.301926,133.144806 
	C103.212807,134.909210 103.736046,136.420578 104.762497,138.146973 
	C105.001595,138.795197 105.078621,139.063614 105.220703,139.749847 
	C105.496246,145.908188 105.330963,151.650925 105.390289,157.812775 
	C105.429871,159.869385 105.218132,161.520966 105.812637,163.521362 
	C106.117004,164.706985 106.215248,165.514175 106.305145,166.728058 
	C106.392838,170.305130 106.229927,173.483673 106.522346,177.048950 
	C106.459961,179.705826 105.496674,181.466354 103.119537,182.722229 
	C101.860573,182.679367 99.908722,182.816498 100.364410,182.022400 
	C104.041794,175.613907 98.348595,173.386963 95.097855,169.729523 
	C93.538429,167.438202 93.594749,165.120407 93.592308,162.802780 
	C93.585175,156.051559 94.439774,149.385254 95.818748,142.355347 
z"/>
<path fill="#0B254B" opacity="1.000000" stroke="none" 
	d="
M71.875610,173.197861 
	C66.677551,169.033081 67.116425,163.269821 73.033264,161.747543 
	C77.659462,160.557297 80.592529,157.305618 84.187233,154.968170 
	C87.352974,152.909622 89.815910,151.317627 93.532059,154.004883 
	C95.184242,158.718002 94.202660,163.502777 94.188080,168.657562 
	C93.766258,169.072647 93.584785,169.072540 93.131584,169.056244 
	C88.738281,168.254639 84.578941,168.537292 80.060104,168.671631 
	C76.523933,169.040939 74.619972,171.535538 71.875610,173.197861 
z"/>
<path fill="#0F2B4C" opacity="1.000000" stroke="none" 
	d="
M76.583572,179.014618 
	C77.049522,176.822708 78.822693,175.700134 80.853333,174.386459 
	C84.174133,171.923019 87.287193,171.980148 90.711853,174.459076 
	C91.900200,175.554245 92.807892,176.279724 93.667114,177.058655 
	C95.055763,178.317490 96.534584,179.841446 95.778450,181.746552 
	C94.854866,184.073517 92.938141,182.186447 91.475372,182.147858 
	C86.454559,182.015396 81.700905,180.538803 76.583572,179.014618 
z"/>
<path fill="transparent" opacity="1.000000" stroke="none" 
	d="
M90.321930,195.899796 
	C86.479240,196.884491 83.026955,196.869873 79.367210,195.127182 
	C77.699829,193.128922 75.460670,191.762207 74.946045,188.840820 
	C81.314255,189.740433 87.661964,191.023392 94.133064,192.331268 
	C93.615631,194.447189 91.340324,194.254410 90.321930,195.899796 
z"/>
<path fill="#29A46A" opacity="1.000000" stroke="none" 
	d="
M103.075378,183.008881 
	C103.765160,181.429062 104.785507,180.019791 105.869034,178.290283 
	C105.626915,177.227112 105.967010,176.607925 106.548187,175.726074 
	C108.763435,174.232574 110.202049,172.227264 112.868019,171.454285 
	C115.543259,172.035263 115.981796,173.832504 116.029068,176.212677 
	C115.963997,176.783417 115.920074,177.007355 115.764679,177.548752 
	C115.550034,178.060410 115.446869,178.254608 114.976517,178.974213 
	C114.486694,179.668747 114.364052,179.837875 114.055481,180.256485 
	C113.483200,181.001160 112.964149,181.327469 112.191200,181.821457 
	C109.066475,182.634521 108.527817,186.247879 105.343567,186.965958 
	C105.064728,185.479263 104.899620,184.052109 103.075378,183.008881 
z"/>
<path fill="#1D9A81" opacity="1.000000" stroke="none" 
	d="
M91.010193,174.416290 
	C88.067879,173.559601 85.008194,173.753952 81.504272,174.122528 
	C80.814102,172.530472 81.434433,170.775726 80.019226,169.009003 
	C83.863670,165.816711 88.123611,167.179962 92.621040,168.759644 
	C89.790306,169.791458 91.441254,172.297287 91.010193,174.416290 
z"/>
<path fill="#050D17" opacity="1.000000" stroke="none" 
	d="
M94.173698,169.200439 
	C93.948357,164.363770 93.948982,159.654770 93.922928,154.481964 
	C94.763275,150.097961 92.546188,145.815659 95.704666,142.043549 
	C94.453575,150.746323 95.190872,159.626556 94.926559,168.975952 
	C94.729012,169.434296 94.564339,169.381195 94.173698,169.200439 
z"/>
<path fill="transparent" opacity="1.000000" stroke="none" 
	d="
M117.423904,194.917282 
	C116.320900,193.743439 115.586098,192.670853 114.916504,191.271210 
	C121.672935,190.294250 128.052094,188.420715 134.671814,185.936127 
	C135.814774,191.238892 132.455704,193.919388 128.068665,196.287170 
	C124.286453,197.230927 120.916260,196.970383 117.423904,194.917282 
z"/>
<path fill="#102E50" opacity="1.000000" stroke="none" 
	d="
M112.375824,182.019409 
	C112.227898,181.490112 112.504532,180.973312 112.890930,180.183563 
	C113.168770,179.776367 113.336845,179.642120 113.703125,179.253311 
	C113.901344,178.998734 113.985794,178.986008 113.992279,178.943787 
	C114.168602,178.769196 114.338448,178.636810 114.705841,178.248825 
	C114.903389,177.993240 114.978142,177.984024 114.973846,177.946609 
	C117.750381,173.842850 121.335358,171.843811 126.671402,173.733856 
	C128.172089,174.581604 129.338593,175.182861 130.819290,175.896896 
	C131.006439,178.305130 128.953094,178.279022 127.549438,178.701584 
	C122.719131,180.155762 117.909973,181.786255 112.375824,182.019409 
z"/>
<path fill="#0C264D" opacity="1.000000" stroke="none" 
	d="
M113.259155,171.801315 
	C111.158592,173.254425 109.422333,174.581802 107.363106,175.991653 
	C106.635727,175.709198 106.376572,175.260803 106.253273,174.336975 
	C106.360207,173.287903 106.465080,172.508804 106.979019,172.136154 
	C112.213860,168.340668 111.810265,162.846634 111.744736,157.309479 
	C111.679375,151.785980 110.261642,146.862305 106.352036,142.443832 
	C105.817184,142.135422 105.611084,141.998886 105.152107,141.592377 
	C104.662369,140.887344 104.533356,140.424088 104.567062,139.567047 
	C105.052330,137.613373 105.052063,135.873703 106.348228,134.205811 
	C107.363838,133.285217 108.304359,133.315643 109.588234,133.341843 
	C110.396866,133.277832 110.859673,133.204742 111.679504,133.055298 
	C115.170868,132.728806 118.050400,133.362930 120.765549,135.699539 
	C126.223854,139.074203 131.084152,142.541992 134.959488,147.339767 
	C136.555847,149.316116 138.595642,150.298615 140.250183,146.859360 
	C141.398758,144.471848 144.113220,144.216660 144.489578,146.794617 
	C144.971817,150.097794 147.031967,152.859177 146.999786,156.598297 
	C146.998199,157.444229 146.995178,157.886642 146.989990,158.660858 
	C143.835297,162.236389 139.663849,164.651398 138.228622,169.739014 
	C137.534302,170.536209 137.070435,171.073578 136.391113,171.772980 
	C134.075470,170.999649 131.975281,170.064285 129.572510,168.954651 
	C123.982979,169.359283 118.551643,169.157852 113.259155,171.801315 
z"/>
<path fill="#2FA660" opacity="1.000000" stroke="none" 
	d="
M113.228096,172.107819 
	C117.310143,167.215118 122.863205,167.384460 128.926605,168.525314 
	C127.692429,169.859436 127.796104,171.760391 127.042648,173.620392 
	C122.692993,173.594360 118.882980,174.782837 115.284569,177.765167 
	C114.850990,175.947769 115.624855,173.762741 113.228096,172.107819 
z"/>
<path fill="#031B3E" opacity="1.000000" stroke="none" 
	d="
M121.233765,135.701385 
	C117.901802,135.514114 115.121964,133.564301 111.411987,134.005280 
	C110.226471,128.932297 115.190369,130.138474 117.589874,128.002396 
	C119.689445,126.603378 121.587997,126.597954 123.831093,127.594986 
	C125.299110,128.834732 126.281158,130.527054 128.302505,128.734283 
	C125.501953,125.563866 127.251244,122.951065 128.990662,120.001297 
	C129.258148,119.466194 129.386108,119.259308 129.786285,118.800537 
	C130.743408,118.187645 131.480438,118.075691 132.622009,118.128174 
	C140.965683,120.261955 148.668610,123.087852 156.495255,126.622604 
	C159.451569,127.552246 161.813446,129.006317 164.781830,129.835052 
	C166.680008,130.007965 167.103989,131.344040 167.924744,132.693466 
	C166.551956,134.500107 164.665207,134.498428 162.366577,134.167938 
	C156.376785,133.225296 150.653885,133.421814 145.135300,133.109528 
	C138.626450,132.741196 132.458862,133.331528 126.137627,133.953918 
	C124.427193,134.122314 122.866699,134.407471 121.233765,135.701385 
z"/>
<path fill="#B56E31" opacity="1.000000" stroke="none" 
	d="
M107.548515,49.651329 
	C113.572655,53.142776 121.648438,53.721439 124.755981,61.805603 
	C125.880150,64.730080 123.932457,67.360153 125.722214,70.099358 
	C127.905617,72.923409 124.891472,75.761070 126.569794,78.701035 
	C126.846581,81.117165 124.544319,80.678017 123.396027,81.950363 
	C121.860832,81.201668 121.629578,79.798332 121.791756,78.530655 
	C122.402206,73.759010 120.219788,71.515625 115.345306,71.019455 
	C114.060143,69.287315 113.417076,66.688789 110.670334,69.617050 
	C106.600807,71.466255 104.245880,70.586906 103.912460,65.777802 
	C104.005997,65.123146 104.069321,64.865982 104.300827,64.250221 
	C105.119987,63.010109 105.968773,62.482449 107.448082,62.495754 
	C110.879417,65.310112 114.268646,63.019779 116.465202,63.349823 
	C116.838455,63.277599 116.194344,63.510742 115.173752,63.337555 
	C113.893158,58.705517 111.458900,55.088642 107.860519,51.749725 
	C107.476830,50.977123 107.399574,50.496243 107.548515,49.651329 
z"/>
<path fill="#EDA15B" opacity="1.000000" stroke="none" 
	d="
M104.695168,64.875885 
	C104.511002,69.099861 106.219795,70.354042 110.376602,69.044701 
	C111.947884,68.861977 113.159424,68.715561 114.601021,69.570740 
	C115.325661,70.026146 115.726730,70.416481 116.181129,70.493912 
	C123.108147,71.674225 123.107849,71.664627 122.939003,79.220970 
	C122.924400,79.874763 122.957565,80.529633 123.032120,81.639473 
	C123.058029,82.441895 122.895943,82.714996 122.380356,82.998184 
	C121.702232,83.405609 121.201675,83.554184 120.275597,83.388870 
	C119.113197,82.472046 118.929825,81.451668 118.739746,80.052094 
	C118.490929,76.448326 116.944740,74.375267 113.547310,74.346291 
	C110.688881,74.321915 108.894188,75.739929 108.793381,79.175468 
	C108.730415,80.043518 108.577919,80.515762 108.044662,81.217804 
	C107.002388,81.809189 106.232445,81.833252 105.100555,81.401306 
	C102.892212,77.876724 102.354424,74.118240 101.151352,70.141869 
	C100.815483,67.210693 101.243011,65.119919 104.695168,64.875885 
z"/>
<path fill="#09142D" opacity="1.000000" stroke="none" 
	d="
M130.089233,118.638672 
	C130.015518,119.161369 130.011948,119.335213 130.002228,119.769791 
	C127.422081,121.870338 124.386902,121.575981 121.111496,121.801651 
	C119.924965,121.437523 119.175179,120.872208 119.081390,120.068092 
	C118.444153,114.604591 115.371094,113.841881 110.550957,115.537682 
	C109.580284,114.867882 109.670494,114.203667 110.054230,113.208382 
	C111.760132,110.728973 114.052567,109.300774 115.985443,107.065262 
	C116.610077,106.063477 116.929298,105.264175 117.518929,104.239380 
	C117.910599,103.878967 118.106873,103.781952 118.589935,103.844963 
	C121.698006,105.171738 121.011490,108.474792 122.863861,110.634430 
	C124.162056,114.594360 128.027252,115.597511 130.089233,118.638672 
z"/>
<path fill="#021737" opacity="1.000000" stroke="none" 
	d="
M161.989349,134.402039 
	C163.621429,132.989105 165.426025,132.914612 167.658325,132.993134 
	C169.067902,133.468719 169.757431,134.202072 169.929260,135.668274 
	C166.608505,138.976471 165.082443,142.763977 165.006317,147.598145 
	C163.871185,149.249451 162.732880,150.491577 161.309509,151.873077 
	C160.749985,151.416321 160.082840,150.474152 160.258575,150.274734 
	C164.469788,145.495773 159.485550,139.723358 161.989349,134.402039 
z"/>
<path fill="#0B2245" opacity="1.000000" stroke="none" 
	d="
M157.283051,127.651085 
	C149.220093,125.036682 141.556534,121.740341 133.247879,119.276245 
	C132.887421,118.780045 132.774231,118.561005 132.840332,118.017784 
	C134.309128,116.665405 135.841400,117.105759 137.647202,116.975853 
	C144.280579,118.842270 150.330658,121.290451 156.658722,124.042084 
	C157.931732,125.064217 157.991669,126.149246 157.283051,127.651085 
z"/>
<path fill="#C5894F" opacity="1.000000" stroke="none" 
	d="
M118.857376,103.549973 
	C118.876732,104.004982 118.476883,104.030357 118.291306,104.105820 
	C117.175598,103.639137 116.629585,101.921829 114.854210,103.420914 
	C113.396919,104.704231 112.253204,105.843292 110.585602,106.902199 
	C109.176277,107.635178 108.034523,107.964134 106.456329,107.565964 
	C105.955742,107.266403 105.786842,107.102112 105.481384,106.616211 
	C105.075920,102.643951 109.747253,103.651611 110.666031,100.650414 
	C115.997917,97.443970 117.194038,92.221260 118.641068,86.766479 
	C118.778038,85.415688 118.976402,84.452049 119.796005,83.341507 
	C120.541733,83.080254 121.001740,83.065643 121.806496,83.066574 
	C121.789398,89.876007 117.815529,96.071899 118.857376,103.549973 
z"/>
<path fill="#082044" opacity="1.000000" stroke="none" 
	d="
M133.231827,117.710793 
	C133.000000,118.003052 133.000290,118.501083 133.000458,118.750084 
	C132.254944,118.997406 131.509293,118.995720 130.391357,118.990784 
	C128.642807,118.147934 127.363029,116.940926 125.869293,116.548698 
	C123.141075,115.832314 122.744743,114.088310 123.005920,111.361244 
	C124.407639,111.284286 125.809174,111.617981 127.575241,111.954842 
	C129.503143,113.106674 131.463333,113.518013 133.230347,114.987534 
	C133.807480,115.993835 133.791977,116.704895 133.231827,117.710793 
z"/>
<path fill="#102749" opacity="1.000000" stroke="none" 
	d="
M157.332062,128.129730 
	C157.008163,126.952950 157.007950,125.920715 157.015137,124.504944 
	C160.698776,124.224907 162.560028,127.132767 165.027252,129.563873 
	C161.922379,132.628311 160.314728,128.014725 157.332062,128.129730 
z"/>
<path fill="#D68B54" opacity="1.000000" stroke="none" 
	d="
M126.912918,78.854828 
	C121.983742,76.701141 126.356178,73.635841 126.069885,70.621552 
	C126.572311,69.566597 127.059532,68.867119 127.842918,68.042610 
	C130.743774,68.639503 129.895142,70.552383 129.512558,72.180847 
	C129.073135,74.051208 128.392746,75.859436 127.309814,77.946640 
	C127.203674,78.357895 127.075859,78.737991 126.912918,78.854828 
z"/>
<path fill="#0D1120" opacity="1.000000" stroke="none" 
	d="
M130.996368,42.575928 
	C129.318115,38.586853 127.636833,34.173977 125.918106,29.378723 
	C129.915390,32.475914 131.013123,37.096870 130.996368,42.575928 
z"/>
<path fill="#B18877" opacity="1.000000" stroke="none" 
	d="
M127.498138,78.151070 
	C126.988846,74.968536 130.123825,72.066124 128.388443,68.204788 
	C128.037704,67.073212 128.428131,66.614334 129.516830,66.486389 
	C131.686310,70.744354 129.906281,74.373215 127.498138,78.151070 
z"/>
<path fill="#031B3E" opacity="1.000000" stroke="none" 
	d="
M133.389008,118.001617 
	C133.003021,117.265022 133.006058,116.527000 133.013702,115.420029 
	C133.213654,114.886703 133.408997,114.722305 133.936356,114.748718 
	C135.398071,115.445175 136.527740,115.950836 137.835114,116.709564 
	C136.892288,118.496498 135.236282,117.844818 133.389008,118.001617 
z"/>
<path fill="#222F42" opacity="1.000000" stroke="none" 
	d="
M134.055237,114.647690 
	C134.060074,114.959045 133.851761,114.978577 133.330902,115.024597 
	C131.160675,114.741707 129.499908,114.053818 128.095993,112.264923 
	C130.250153,111.913116 132.150696,112.877090 134.055237,114.647690 
z"/>
<path fill="#08121A" opacity="1.000000" stroke="none" 
	d="
M115.907791,20.746500 
	C115.381256,20.999357 114.736374,21.045847 114.103325,20.979465 
	C113.219055,20.886738 111.749908,21.304970 111.699135,20.145626 
	C111.622719,18.401047 113.303780,19.242256 114.619888,19.010456 
	C115.260612,19.507959 115.527672,19.998867 115.907791,20.746500 
z"/>
<path fill="#0D1120" opacity="1.000000" stroke="none" 
	d="
M125.011276,27.749062 
	C123.464348,27.423780 123.002853,25.881918 122.114319,24.272133 
	C124.108185,24.116047 125.031418,25.327301 125.011276,27.749062 
z"/>
<path fill="#08121A" opacity="1.000000" stroke="none" 
	d="
M120.868843,22.696281 
	C119.658638,22.789558 117.949638,23.597017 117.058029,21.357231 
	C118.414436,20.966810 119.805641,21.023367 120.868843,22.696281 
z"/>
<path fill="#091E3F" opacity="1.000000" stroke="none" 
	d="
M39.314445,131.235947 
	C38.537594,130.996475 38.062580,130.988739 37.229843,130.960236 
	C36.919746,129.727173 37.762623,129.095367 38.820110,128.229218 
	C40.029694,126.393883 41.365211,125.259048 43.648491,124.996857 
	C45.404312,124.995743 46.376396,124.069412 47.721966,123.177681 
	C48.729725,122.290115 49.412392,121.512024 50.694820,121.048935 
	C52.439041,120.358887 53.880390,119.727089 55.659920,119.036987 
	C56.399612,118.548294 56.859497,118.211624 57.734703,118.060982 
	C61.087658,117.349907 64.151329,116.655174 67.617424,115.940567 
	C68.188118,115.775154 68.356392,115.629608 68.756279,115.243774 
	C69.832916,113.869041 71.105568,114.122467 72.622696,113.972878 
	C74.926003,113.483421 76.361282,114.611954 78.122025,115.794823 
	C78.558357,116.581909 78.598518,117.087128 78.315178,117.947769 
	C73.931488,120.775406 69.433937,122.427681 64.212204,123.050323 
	C59.552486,123.422798 56.454086,126.694725 52.121330,127.927292 
	C47.847054,129.612915 44.091812,131.839493 39.314445,131.235947 
z"/>
<path fill="#DE9349" opacity="1.000000" stroke="none" 
	d="
M81.143555,104.291946 
	C81.498222,103.237167 81.756851,102.523628 82.091728,101.431427 
	C84.522430,99.223549 86.046326,101.082108 87.584770,102.378250 
	C89.451591,103.951057 91.259216,105.533768 94.253876,105.628952 
	C96.997917,105.749954 99.379135,105.449043 102.079605,106.161041 
	C103.740997,107.207123 103.084076,108.047775 102.096687,109.143173 
	C101.048683,110.008591 100.256020,110.589516 99.199028,111.419945 
	C95.847267,113.118385 92.510735,113.463562 88.865250,114.002678 
	C88.272438,113.964920 88.037102,113.930748 87.459511,113.799042 
	C86.678772,113.525795 86.252281,113.324532 85.528915,112.931053 
	C83.827408,111.874672 82.629326,110.778481 81.493759,109.123154 
	C81.153130,108.370293 81.026199,107.915199 80.887115,107.097031 
	C80.782967,106.028320 80.830093,105.322304 81.143555,104.291946 
z"/>
<path fill="#AF7031" opacity="1.000000" stroke="none" 
	d="
M94.240585,106.674896 
	C91.158836,107.137581 89.141731,105.602638 87.232811,103.761238 
	C85.987007,102.559494 84.982918,100.901230 82.521599,101.061371 
	C81.991112,100.586617 81.814240,100.120483 81.446320,99.332962 
	C81.107727,98.275429 81.059502,97.537964 81.390472,96.466843 
	C85.304222,94.217827 86.420876,98.016350 88.915054,99.619537 
	C89.887772,100.400002 90.667427,100.830231 91.839920,101.247314 
	C92.798553,101.648972 93.392181,102.006561 94.185616,102.698624 
	C94.662247,103.383995 94.818459,103.835342 94.925613,104.672729 
	C94.875137,105.520515 94.724586,105.976120 94.240585,106.674896 
z"/>
<path fill="#B26A33" opacity="1.000000" stroke="none" 
	d="
M80.532700,94.087585 
	C79.816597,93.502853 79.504669,93.003181 79.056023,92.236572 
	C78.490967,91.427803 78.537956,90.714973 78.196587,89.794693 
	C78.068192,87.600975 77.997559,85.733627 77.903503,83.463303 
	C76.547363,80.775536 76.594948,77.923058 74.698128,75.467148 
	C73.980820,73.851837 74.130722,72.613701 75.027122,71.089226 
	C75.615875,70.359970 76.029678,70.022545 76.876526,69.608780 
	C77.810699,69.404343 78.337189,69.494308 79.136978,70.015343 
	C80.210144,71.492203 80.245750,72.856613 80.329430,74.616302 
	C80.379234,76.087669 80.384132,77.156998 80.402481,78.627991 
	C81.277855,83.557976 81.504044,88.144547 81.567627,93.134857 
	C81.285767,93.746590 81.111313,93.959625 80.532700,94.087585 
z"/>
<path fill="#030202" opacity="1.000000" stroke="none" 
	d="
M81.374054,106.421066 
	C81.511147,107.254715 81.736374,107.726982 82.030899,108.587288 
	C81.336769,110.153191 79.876053,110.381355 78.660477,111.516266 
	C77.252556,112.535103 76.084549,113.279236 74.301453,113.100319 
	C74.141624,108.647903 76.753174,106.091240 80.524536,104.089684 
	C81.639954,104.558601 81.450096,105.339523 81.374054,106.421066 
z"/>
<path fill="#030E28" opacity="1.000000" stroke="none" 
	d="
M73.780746,113.055679 
	C75.128258,112.365349 76.262428,111.796906 77.682449,111.087982 
	C81.332893,111.459808 81.424767,112.043732 78.324249,115.913422 
	C76.167809,116.223854 74.818596,115.401024 73.289246,114.113647 
	C73.098488,113.632454 73.292778,113.374733 73.780746,113.055679 
z"/>
<path fill="#AC723E" opacity="1.000000" stroke="none" 
	d="
M76.253677,81.544098 
	C72.981155,81.892052 73.740784,79.268745 73.063660,77.200027 
	C73.697556,76.068756 74.313927,75.778526 75.372971,75.730652 
	C76.612396,77.570786 77.744522,79.345367 76.253677,81.544098 
z"/>
<path fill="#030202" opacity="1.000000" stroke="none" 
	d="
M43.749508,124.702202 
	C42.934093,126.537926 40.996635,126.693192 39.294399,127.837326 
	C38.992622,124.853584 40.203785,123.296089 43.749508,124.702202 
z"/>
<path fill="#CD8D5F" opacity="1.000000" stroke="none" 
	d="
M69.651154,71.361206 
	C69.833260,70.825897 69.843544,70.651566 69.746330,70.238373 
	C69.638832,69.999496 69.628723,69.508957 69.524048,69.287086 
	C69.443092,68.578888 69.466805,68.092560 69.381844,67.255051 
	C69.516197,66.796288 69.759224,66.688698 70.400757,66.615250 
	C73.226875,67.772423 73.166275,69.982254 73.165329,72.551620 
	C73.030792,73.487267 72.846359,73.989677 72.287689,74.742096 
	C71.999718,75.023758 71.704552,74.896530 71.544731,74.879669 
	C70.019173,74.259186 69.314041,73.254753 69.651154,71.361206 
z"/>
<path fill="#030202" opacity="1.000000" stroke="none" 
	d="
M69.425827,66.918121 
	C67.316559,66.986923 65.740440,66.258560 66.288528,64.117226 
	C66.751053,62.310127 68.189445,63.938618 69.523201,63.953346 
	C70.038124,64.135788 70.218002,64.281143 70.524033,64.750000 
	C70.685692,65.541176 70.614517,65.990608 70.145782,66.630585 
	C69.871620,66.842262 69.578491,66.932373 69.425827,66.918121 
z"/>
<path fill="#673820" opacity="1.000000" stroke="none" 
	d="
M76.172249,81.783806 
	C76.865852,79.817810 75.857780,78.111786 75.435997,76.132591 
	C75.077858,75.770767 74.944138,75.642914 75.035080,75.352135 
	C78.445374,76.656708 77.743790,79.650757 77.957321,82.657715 
	C77.396744,82.689888 76.913406,82.319443 76.172249,81.783806 
z"/>
<path fill="#181214" opacity="1.000000" stroke="none" 
	d="
M70.018784,53.420959 
	C73.648071,54.109390 71.278282,57.117863 71.989532,59.553162 
	C70.496910,58.185303 70.058899,56.058735 70.018784,53.420959 
z"/>
<path fill="#030202" opacity="1.000000" stroke="none" 
	d="
M69.488022,71.069908 
	C70.296021,72.060036 70.769058,73.119858 71.313507,74.521240 
	C68.792473,74.729790 67.045586,74.089928 69.488022,71.069908 
z"/>
<path fill="#030202" opacity="1.000000" stroke="none" 
	d="
M50.808540,120.750778 
	C50.511360,122.002762 49.842567,122.795502 48.321503,122.979630 
	C48.209682,121.480934 48.455750,119.990891 50.808540,120.750778 
z"/>
<path fill="#0E0914" opacity="1.000000" stroke="none" 
	d="
M81.694687,96.071182 
	C81.539871,97.030037 81.566406,97.718491 81.424110,98.709259 
	C79.639435,98.352036 80.056282,96.913483 79.988449,95.325424 
	C80.179237,94.852913 80.354866,94.721458 80.852371,94.658638 
	C81.509621,95.018768 81.749184,95.372932 81.694687,96.071182 
z"/>
<path fill="#AC723E" opacity="1.000000" stroke="none" 
	d="
M71.971909,75.326408 
	C72.011124,74.576591 72.022530,74.129425 72.089371,73.349770 
	C72.374832,72.932770 72.604851,72.848267 73.125259,72.991295 
	C73.966286,74.124466 73.979088,75.080872 73.494148,76.382950 
	C73.303871,76.699608 73.069565,76.927383 72.951630,77.040604 
	C72.537155,76.645576 72.240623,76.137314 71.971909,75.326408 
z"/>
<path fill="#030202" opacity="1.000000" stroke="none" 
	d="
M57.855274,117.809608 
	C57.546066,118.348610 57.068150,118.652596 56.294167,118.967636 
	C56.189445,118.063950 56.162266,116.886429 57.855274,117.809608 
z"/>
<path fill="#030202" opacity="1.000000" stroke="none" 
	d="
M72.672180,28.039366 
	C72.975105,28.443556 72.983521,28.888422 72.986115,29.666969 
	C72.467873,29.767651 71.706688,29.664846 71.500786,29.271423 
	C71.184174,28.666485 71.761642,28.254278 72.672180,28.039366 
z"/>
<path fill="#181214" opacity="1.000000" stroke="none" 
	d="
M70.301018,65.131447 
	C69.951790,64.872742 69.904106,64.431900 69.881172,64.211166 
	C70.366623,63.674862 70.875008,63.359295 71.691010,63.023827 
	C72.012955,63.357079 72.027283,63.710228 72.037735,64.328529 
	C71.753738,65.173737 71.292534,65.439232 70.301018,65.131447 
z"/>
<path fill="#0E0914" opacity="1.000000" stroke="none" 
	d="
M81.424698,106.442078 
	C81.164413,106.063347 81.042908,105.344254 80.892273,104.346817 
	C80.863152,104.068489 81.045753,103.991226 81.142670,103.970963 
	C81.347557,104.667702 81.455521,105.384705 81.424698,106.442078 
z"/>
<path fill="#08121A" opacity="1.000000" stroke="none" 
	d="
M71.756470,36.155682 
	C71.828850,36.547112 71.655502,37.109360 71.231598,37.838318 
	C71.157600,37.445522 71.334175,36.886009 71.756470,36.155682 
z"/>
<path fill="#030202" opacity="1.000000" stroke="none" 
	d="
M78.115402,89.820435 
	C78.417763,90.075478 78.696686,90.682625 78.947464,91.629715 
	C78.643532,91.370613 78.367744,90.771576 78.115402,89.820435 
z"/>
<path fill="#030202" opacity="1.000000" stroke="none" 
	d="
M68.779449,115.101822 
	C68.914398,115.327354 68.739983,115.582062 68.242233,115.844147 
	C68.124847,115.620300 68.308571,115.380127 68.779449,115.101822 
z"/>
<path fill="#181214" opacity="1.000000" stroke="none" 
	d="
M69.325623,69.182961 
	C69.419380,69.065216 69.664352,69.500534 69.651596,69.750015 
	C69.311348,69.870750 69.175690,69.637825 69.325623,69.182961 
z"/>
<path fill="#AF7031" opacity="1.000000" stroke="none" 
	d="
M81.056351,94.880310 
	C80.864388,95.152748 80.430717,95.085426 80.217163,95.034897 
	C80.003609,94.984360 80.059967,94.492104 80.094246,94.247314 
	C80.128525,94.002525 80.557678,93.995735 80.772278,93.995224 
	C81.074020,94.199089 81.161163,94.403473 81.056351,94.880310 
z"/>
<path fill="#FDD698" opacity="1.000000" stroke="none" 
	d="
M107.447174,49.114281 
	C107.763985,49.641647 107.848900,49.979504 108.019745,50.567738 
	C108.459038,51.560368 108.994469,52.474785 108.548622,53.136288 
	C106.477592,56.209110 108.192467,57.846222 110.612724,59.433342 
	C111.847923,60.243347 112.957130,61.320217 111.920799,63.333939 
	C110.669434,64.023949 109.690353,64.038437 108.383591,63.382690 
	C107.171745,62.926544 106.401428,63.158291 105.457703,63.925858 
	C103.446274,64.987511 101.653481,65.319153 99.425339,64.386169 
	C97.467690,63.107037 94.509972,62.265930 94.786964,60.501247 
	C95.292458,57.280914 93.695320,54.406605 94.172554,51.364674 
	C94.474648,49.439068 96.151680,48.863594 97.768982,48.343624 
	C99.571785,47.764015 101.394127,48.170391 103.533798,48.115211 
	C104.070892,47.945770 104.283722,47.871162 104.827423,47.726112 
	C105.843948,48.078701 106.529610,48.501732 107.447174,49.114281 
z"/>
<path fill="#DA8535" opacity="1.000000" stroke="none" 
	d="
M82.829971,53.409889 
	C83.374123,53.025089 83.588081,52.739620 84.028183,52.307503 
	C85.449692,50.228432 85.975555,47.515190 89.430161,48.256527 
	C90.860863,52.883701 88.051849,56.523315 87.436928,60.918922 
	C85.912956,62.188110 84.493721,62.251762 82.599548,61.818935 
	C79.229568,59.654510 79.988350,57.272221 81.826340,54.510918 
	C82.138596,54.206711 82.169884,54.144665 82.204597,54.146210 
	C82.326134,53.934910 82.412956,53.722065 82.829971,53.409889 
z"/>
<path fill="#8E4717" opacity="1.000000" stroke="none" 
	d="
M81.798126,54.172813 
	C82.350021,56.268517 80.115044,58.156898 81.864014,60.632103 
	C82.741035,62.136196 81.457527,62.880783 81.307037,64.210350 
	C80.944695,66.070168 80.619438,67.602280 79.394714,69.475540 
	C78.499680,69.962517 78.088486,69.981598 77.369217,70.021637 
	C76.661987,69.632500 76.475044,69.141586 76.644104,68.187637 
	C76.589523,65.817963 76.391121,63.830502 76.220596,61.468315 
	C76.340996,60.887436 76.433510,60.681278 76.739304,60.211678 
	C78.586967,58.114704 79.025398,55.353710 81.798126,54.172813 
z"/>
<path fill="#8E4717" opacity="1.000000" stroke="none" 
	d="
M89.375359,48.078110 
	C86.879463,48.524784 86.577888,51.007858 84.567978,52.089775 
	C84.327377,46.325066 87.120621,44.101372 94.721878,44.268387 
	C95.116333,45.277573 94.530815,45.869896 93.838593,46.739876 
	C93.483948,47.102451 93.330246,47.235538 92.908234,47.512695 
	C91.678986,47.990952 90.684288,48.105400 89.375359,48.078110 
z"/>
<path fill="#D8853A" opacity="1.000000" stroke="none" 
	d="
M93.028992,47.026657 
	C92.904961,45.501102 93.961151,45.298950 94.938248,44.609707 
	C98.851128,43.528175 102.222595,44.001465 105.038292,47.330482 
	C105.189003,47.828289 105.219704,48.000912 105.163559,48.421772 
	C103.074066,49.420597 101.315834,48.127239 99.066513,47.966187 
	C97.798203,47.837498 96.887787,47.640305 95.607086,47.817970 
	C94.525604,47.874290 93.834595,47.737698 93.028992,47.026657 
z"/>
<path fill="#CF7533" opacity="1.000000" stroke="none" 
	d="
M69.918571,65.201889 
	C70.417984,64.833183 70.884178,64.793633 71.692123,64.673874 
	C72.682465,65.496124 73.331062,66.398575 74.196457,67.560135 
	C74.626305,68.280464 74.748947,68.764648 74.746773,69.648682 
	C74.453812,71.013947 74.058472,71.934677 73.054321,72.891434 
	C72.714890,73.058998 72.428040,73.040878 72.286423,73.029083 
	C71.738625,71.052742 72.670158,68.718452 70.208260,67.035667 
	C69.876198,66.405190 69.880775,65.968109 69.918571,65.201889 
z"/>
<path fill="#532912" opacity="1.000000" stroke="none" 
	d="
M74.216751,70.160751 
	C74.168831,69.380211 74.176643,68.923477 74.298859,68.143005 
	C75.009644,67.852501 75.606033,67.885742 76.495163,67.862198 
	C76.860992,68.300919 76.934067,68.796417 77.034142,69.667252 
	C76.841721,70.302299 76.622299,70.562004 76.175079,70.943085 
	C75.216415,71.369644 74.712524,71.019318 74.216751,70.160751 
z"/>
<path fill="#8E4717" opacity="1.000000" stroke="none" 
	d="
M82.919937,53.328720 
	C83.128815,53.639656 82.969673,53.886307 82.461029,54.099136 
	C82.208740,53.783192 82.355545,53.516235 82.919937,53.328720 
z"/>
<path fill="#532912" opacity="1.000000" stroke="none" 
	d="
M76.731155,60.063202 
	C76.941765,60.274406 76.826981,60.558537 76.428360,60.947113 
	C76.146004,60.734325 76.233093,60.429180 76.731155,60.063202 
z"/>
<path fill="#011636" opacity="1.000000" stroke="none" 
	d="
M51.904671,127.346085 
	C55.539856,125.188408 59.078518,123.369667 62.808716,121.790428 
	C63.655689,123.469360 64.981606,123.770332 66.305817,123.685272 
	C71.858376,123.328636 77.004555,125.129875 82.233154,126.520744 
	C82.373260,126.558014 82.537971,126.502815 82.691208,126.490738 
	C82.651772,126.331039 82.612328,126.171349 82.494438,125.705261 
	C82.398872,124.943130 82.493546,124.508827 82.918640,123.824463 
	C88.826790,123.035744 89.527611,123.469086 91.101906,128.724030 
	C91.474709,129.968460 92.654228,130.912079 92.211998,132.688141 
	C91.359314,136.511230 88.097389,134.095566 86.251366,135.722656 
	C79.246414,138.904572 72.165375,139.502426 64.460785,138.993835 
	C62.582222,134.940536 67.571373,136.571396 68.239059,133.982086 
	C66.489212,131.564270 63.661762,131.676727 60.973095,131.175735 
	C57.745953,130.574371 53.898308,131.347275 51.904671,127.346085 
z"/>
<path fill="#030E28" opacity="1.000000" stroke="none" 
	d="
M92.259781,132.902191 
	C91.396477,130.811600 88.389069,129.936462 89.503006,126.423187 
	C90.064034,124.653770 85.832718,124.809647 83.405090,124.010757 
	C81.520790,121.850700 81.480209,121.373230 84.012878,121.157982 
	C87.075432,120.897713 87.847290,119.215858 88.385521,116.444809 
	C92.196396,114.266144 93.980835,117.811813 96.929626,119.106865 
	C97.642372,119.672340 97.993042,120.052505 98.482643,120.814697 
	C99.032547,122.130173 99.063362,123.123894 98.692886,124.465393 
	C97.371445,126.110947 96.031044,127.340347 95.962936,129.662445 
	C95.647736,130.692291 95.251480,131.263290 94.317276,131.831848 
	C93.503471,132.258347 93.011238,132.526169 92.259781,132.902191 
z"/>
<path fill="#020408" opacity="1.000000" stroke="none" 
	d="
M95.162865,130.222809 
	C95.421509,128.167053 93.765442,125.464066 97.584335,124.984718 
	C102.220482,126.215553 100.569382,128.885330 99.289276,131.737579 
	C99.216286,135.061905 98.910210,137.969894 97.203964,140.953674 
	C95.760895,140.308990 95.922363,139.010681 95.928818,137.378571 
	C95.826736,136.831772 95.726616,136.662338 95.786362,136.244705 
	C95.959053,135.552628 95.971870,135.108749 95.989388,134.331818 
	C96.150734,132.752853 95.628975,131.638245 95.162865,130.222809 
z"/>
<path fill="#011636" opacity="1.000000" stroke="none" 
	d="
M94.904922,130.225922 
	C96.510551,130.770111 97.515579,131.781311 96.255264,133.808044 
	C95.490173,133.433533 94.986252,132.868286 94.239021,132.146774 
	C94.263031,131.490311 94.530365,130.990112 94.904922,130.225922 
z"/>
<path fill="#011636" opacity="1.000000" stroke="none" 
	d="
M95.788704,136.087311 
	C95.955254,136.164246 95.964256,136.331970 95.950058,136.750458 
	C95.769386,136.831512 95.593704,136.673874 95.467697,136.483368 
	C95.437454,136.437668 95.572266,136.282776 95.788704,136.087311 
z"/>
<path fill="#011636" opacity="1.000000" stroke="none" 
	d="
M39.378895,139.996124 
	C37.667934,138.599670 36.143848,137.211700 38.829937,135.257019 
	C44.541241,130.730270 54.131699,131.871048 57.215893,137.592621 
	C56.558071,137.998047 56.113537,137.999756 55.335644,138.002258 
	C49.689800,136.883057 44.559643,137.161819 39.378895,139.996124 
z"/>
<path fill="#011434" opacity="1.000000" stroke="none" 
	d="
M56.266449,159.880417 
	C54.934082,160.001022 53.868008,160.001450 52.402267,160.002106 
	C51.841614,159.135834 51.680634,158.269318 51.256607,157.194641 
	C51.231533,156.210709 51.353981,155.373291 51.729050,154.670746 
	C52.874043,152.526031 54.821800,151.541962 57.076508,152.244888 
	C60.143658,153.201065 57.788277,155.547073 58.006203,157.626053 
	C57.512035,158.587158 57.022392,159.173706 56.266449,159.880417 
z"/>
<path fill="#01112F" opacity="1.000000" stroke="none" 
	d="
M57.335468,137.997360 
	C53.038536,132.123535 47.086578,134.349350 41.713055,134.283264 
	C41.087372,134.275574 40.456623,134.680283 39.416775,134.945618 
	C38.232704,133.874130 38.627750,132.738083 38.990425,131.303406 
	C43.276794,130.268845 47.235229,128.577850 51.629356,127.046806 
	C54.450443,130.228470 58.268333,129.134827 61.468979,129.961014 
	C62.562527,130.243286 63.838680,129.859299 64.908348,130.184479 
	C67.280640,130.905701 70.324982,132.012329 70.547951,134.339890 
	C70.796043,136.929626 67.405121,136.336517 65.575989,137.105499 
	C65.029045,137.335419 64.611656,137.873505 64.064537,138.630615 
	C63.246937,138.991898 62.499706,138.992966 61.378780,138.993378 
	C60.608017,138.559341 60.163082,138.198151 59.289322,138.024796 
	C58.556007,138.001099 58.112167,137.999741 57.335468,137.997360 
z"/>
<path fill="#011636" opacity="1.000000" stroke="none" 
	d="
M59.167427,138.247833 
	C59.906910,136.895706 60.526917,137.159409 60.972755,138.700836 
	C60.448387,138.826233 59.891697,138.659744 59.167427,138.247833 
z"/>
<path fill="#082247" opacity="1.000000" stroke="none" 
	d="
M138.352844,169.961578 
	C137.402481,163.824585 142.057739,161.590561 146.617188,158.999619 
	C146.667038,160.638733 147.881439,162.678986 145.369629,163.929016 
	C141.073303,164.031570 142.408783,169.653458 138.352844,169.961578 
z"/>
<path fill="#0C0F0D" opacity="1.000000" stroke="none" 
	d="
M99.356911,132.083008 
	C98.017693,129.973053 101.202568,127.436241 98.168503,125.251556 
	C97.980476,123.977234 97.987350,122.982140 97.989540,121.613342 
	C98.672470,119.902878 99.912270,119.727516 101.580246,119.811073 
	C103.887444,122.180389 104.604767,125.019119 105.601929,128.078262 
	C105.528351,128.660919 105.463669,128.887222 105.235641,129.421387 
	C104.200966,130.852921 104.203468,132.308807 103.418533,133.826996 
	C103.000053,134.203888 102.785408,134.296600 102.273148,134.203766 
	C101.205444,133.378159 100.435364,132.738068 99.356911,132.083008 
z"/>
<path fill="#061A39" opacity="1.000000" stroke="none" 
	d="
M102.851120,134.327606 
	C103.117172,132.492859 103.270599,130.997345 103.708527,129.261780 
	C105.766891,129.984299 107.746178,130.784424 107.223267,133.692200 
	C106.505638,135.526733 106.010674,137.056534 105.245110,138.794678 
	C104.812744,139.176743 104.650970,139.350449 104.244141,139.265839 
	C103.993416,138.837357 103.987740,138.667175 103.977142,138.241638 
	C103.232559,137.001877 103.009132,135.825592 102.851120,134.327606 
z"/>
<path fill="#061A39" opacity="1.000000" stroke="none" 
	d="
M104.812408,141.371536 
	C105.237457,140.984436 105.427567,141.001678 105.902672,141.046570 
	C108.034439,143.565964 107.569641,146.476807 107.518814,149.247116 
	C107.418739,154.702972 108.073090,160.185822 106.828239,166.051239 
	C106.399185,166.720398 106.174782,166.951645 105.476730,167.086548 
	C105.000748,166.245316 104.998421,165.500381 104.997704,164.383011 
	C104.111870,162.588699 104.678413,161.010452 104.515182,159.046997 
	C104.554054,152.980911 104.436035,147.377914 104.812408,141.371536 
z"/>
<path fill="#08121A" opacity="1.000000" stroke="none" 
	d="
M105.035950,140.639923 
	C105.030060,146.663071 105.012772,152.358963 104.992729,158.522125 
	C104.832504,159.156647 104.675041,159.323914 104.275940,159.245514 
	C104.020241,152.647461 104.006180,146.295044 103.995605,139.475098 
	C103.999084,139.007553 104.487106,139.008881 104.730804,139.005966 
	C104.991188,139.439590 105.007874,139.876129 105.035950,140.639923 
z"/>
<path fill="#0B1629" opacity="1.000000" stroke="none" 
	d="
M104.997482,167.443680 
	C105.003075,166.990234 105.481667,167.001602 105.720993,167.005890 
	C107.716423,168.724945 107.209412,170.800751 106.901802,173.231781 
	C106.936493,174.163101 106.960747,174.709045 107.012573,175.664566 
	C106.760605,176.544037 106.481071,177.013947 106.066879,177.726959 
	C104.027901,174.760925 105.414513,171.244583 104.997482,167.443680 
z"/>
<path fill="#08121A" opacity="1.000000" stroke="none" 
	d="
M102.716675,133.995117 
	C103.303047,135.087524 103.642342,136.186691 103.976929,137.636078 
	C102.538574,137.361389 101.946274,136.228241 101.984055,134.363770 
	C101.975525,134.018250 102.469589,134.001862 102.716675,133.995117 
z"/>
<path fill="#0B1629" opacity="1.000000" stroke="none" 
	d="
M104.024734,159.387207 
	C104.034309,158.999863 104.512291,158.997772 104.751129,158.993591 
	C104.994820,160.384048 104.999664,161.778717 105.001907,163.591965 
	C103.525681,162.864700 104.153084,161.230713 104.024734,159.387207 
z"/>
<path fill="#2FA660" opacity="1.000000" stroke="none" 
	d="
M114.712990,178.101715 
	C114.841423,178.305710 114.679306,178.552307 114.207901,178.817291 
	C114.110298,178.623322 114.284912,178.392853 114.712990,178.101715 
z"/>
<path fill="#2FA660" opacity="1.000000" stroke="none" 
	d="
M113.710449,179.106583 
	C113.839073,179.310165 113.677284,179.556122 113.208344,179.823608 
	C113.108643,179.630081 113.281593,179.398026 113.710449,179.106583 
z"/>
<path fill="#061A39" opacity="1.000000" stroke="none" 
	d="
M105.238457,129.247101 
	C104.344193,126.128189 102.013992,123.867477 102.170105,120.158844 
	C102.793221,119.260887 103.305527,119.077423 104.050156,118.759933 
	C104.449234,118.563072 104.606537,118.480049 104.988998,118.255478 
	C105.504341,117.899223 105.776115,117.663094 106.210297,117.189995 
	C106.866165,116.348183 107.367081,115.745773 108.475525,114.896507 
	C109.217003,114.580536 109.425697,114.577438 109.852875,114.798553 
	C110.397942,115.010078 110.726242,114.969292 111.050835,114.989151 
	C113.679779,115.150002 115.350494,110.790352 117.964066,112.903748 
	C119.932823,114.495743 119.139069,117.791031 119.990860,120.626068 
	C120.815086,124.012672 117.105110,125.546227 117.810913,128.715942 
	C117.842369,130.027725 117.615700,131.001099 116.200577,130.558853 
	C113.530624,129.724472 112.343727,131.446503 111.136536,133.695404 
	C110.897202,134.328461 110.706665,134.585663 110.207581,134.879120 
	C108.860245,132.832489 107.495392,130.883743 105.238457,129.247101 
z"/>
<path fill="#36A14D" opacity="1.000000" stroke="none" 
	d="
M107.080002,173.343140 
	C105.343681,171.871170 106.480446,169.729965 106.012466,167.412872 
	C106.018646,158.672104 106.076981,150.334061 106.161484,141.535095 
	C111.176865,143.987473 112.037750,149.070480 112.901169,154.086914 
	C113.178772,155.699783 112.784966,157.421280 113.001465,159.052856 
	C113.772179,164.861069 112.593521,169.802582 107.080002,173.343140 
z"/>
<path fill="#07132B" opacity="1.000000" stroke="none" 
	d="
M104.770576,128.998352 
	C108.268646,129.230637 109.976692,130.921249 109.988266,134.599625 
	C109.201248,134.673843 108.416824,134.368103 107.316505,134.029663 
	C107.068817,131.932205 105.230293,131.048248 104.138855,129.316528 
	C104.165802,129.015701 104.338570,129.009705 104.770576,128.998352 
z"/>
<path fill="#072044" opacity="1.000000" stroke="none" 
	d="
M118.244019,128.721649 
	C115.902420,128.711777 115.654182,127.558617 116.669151,125.967682 
	C117.616280,124.483086 118.682129,123.074219 119.847961,121.329941 
	C123.048843,120.735870 125.993011,119.504578 129.563324,120.021454 
	C129.976700,120.528206 130.163940,121.259460 129.906113,121.487503 
	C127.272606,123.816833 128.043793,126.040306 129.991455,128.637512 
	C128.359390,130.245605 126.586693,130.159973 124.380135,129.259491 
	C122.306984,127.385490 120.401176,127.891563 118.244019,128.721649 
z"/>
<path fill="#061A39" opacity="1.000000" stroke="none" 
	d="
M124.074600,129.364548 
	C125.715080,128.997375 127.428467,128.997787 129.570007,128.997269 
	C128.405502,132.084717 126.374229,131.685516 124.074600,129.364548 
z"/>
<path fill="#FBC47E" opacity="1.000000" stroke="none" 
	d="
M112.228043,62.897705 
	C111.608078,61.981712 111.360603,61.261101 110.866318,60.989262 
	C106.810745,58.758820 103.510460,56.367573 108.064369,51.195496 
	C111.224411,53.931267 116.065346,55.959064 114.895569,62.096329 
	C114.388916,63.730625 113.458115,63.573463 112.228043,62.897705 
z"/>
<path fill="#642E0E" opacity="1.000000" stroke="none" 
	d="
M111.571312,62.504848 
	C112.680847,62.474331 113.391777,62.454315 114.457893,62.452019 
	C116.465858,63.336166 118.792229,60.961266 120.144173,63.676815 
	C116.793633,64.268906 113.459160,64.766342 110.171509,65.479576 
	C108.629196,65.814171 107.954491,65.467438 108.018158,63.528122 
	C109.097580,62.948360 110.135139,62.731857 111.571312,62.504848 
z"/>
<path fill="#FBBB77" opacity="1.000000" stroke="none" 
	d="
M98.786079,63.232353 
	C100.659927,64.032700 102.514870,64.038254 104.784363,64.057953 
	C105.193573,64.100121 105.170464,64.567291 105.133118,64.798187 
	C103.025665,65.675224 101.645210,66.825836 102.002502,69.622223 
	C101.437965,70.599419 100.727463,70.767677 99.582405,70.589119 
	C98.576027,70.041649 98.300240,69.391701 98.165756,68.310219 
	C98.273201,66.891876 98.528877,65.825264 98.383179,64.409256 
	C98.450691,63.882355 98.510674,63.676628 98.786079,63.232353 
z"/>
<path fill="#62311E" opacity="1.000000" stroke="none" 
	d="
M114.915161,69.457687 
	C113.674202,69.897964 112.433464,70.336082 110.990196,69.329620 
	C109.749702,65.962166 112.195534,67.133080 113.434486,66.930283 
	C115.387352,66.610626 115.552986,67.636215 114.915161,69.457687 
z"/>
<path fill="#F9B574" opacity="1.000000" stroke="none" 
	d="
M104.777405,80.762642 
	C105.762062,80.960236 106.477570,80.971603 107.550903,80.983734 
	C108.123314,80.855591 108.337883,80.726685 108.897537,80.748009 
	C110.322029,82.310349 110.598030,84.103157 111.604713,85.970749 
	C111.900490,87.100800 111.859756,87.858505 111.390755,88.928345 
	C109.420555,90.866608 106.577431,89.545975 104.663437,91.815628 
	C102.600891,93.300461 100.801689,93.418961 98.686951,91.922394 
	C97.215225,88.601822 95.175789,85.809837 96.083267,81.893478 
	C96.515343,80.769157 97.043610,80.226135 98.104393,79.769531 
	C100.254333,79.670158 101.059570,82.931618 103.635216,80.972092 
	C104.088982,80.697449 104.298622,80.636932 104.777405,80.762642 
z"/>
<path fill="#FDCB94" opacity="1.000000" stroke="none" 
	d="
M111.289772,86.260933 
	C109.061226,85.185417 108.901794,83.521484 108.963356,81.381561 
	C110.423714,77.059044 113.836479,77.824074 117.320473,77.780945 
	C118.306236,77.951187 118.822441,78.178009 119.614227,78.785980 
	C119.955002,80.137810 119.974518,81.212303 120.037888,82.690826 
	C120.011414,84.088531 119.941093,85.082207 119.847267,86.450409 
	C119.501938,87.274796 119.068695,87.548729 118.128479,87.662849 
	C115.696945,87.244240 113.505341,87.622070 111.289772,86.260933 
z"/>
<path fill="#FBB065" opacity="1.000000" stroke="none" 
	d="
M105.030861,80.550629 
	C104.877388,80.957367 104.708214,80.965866 104.284973,80.977837 
	C102.495621,81.064926 101.039276,80.601280 99.275810,80.167191 
	C98.501221,80.261810 98.005188,80.524872 97.248718,80.894424 
	C96.747086,81.087997 96.505890,81.175079 96.007874,80.975121 
	C96.359650,77.190140 97.348076,73.794586 98.805832,70.201134 
	C99.823975,69.968964 100.548523,69.982079 101.635361,69.994247 
	C103.402092,73.261269 104.643890,76.577538 105.030861,80.550629 
z"/>
<path fill="#F9B574" opacity="1.000000" stroke="none" 
	d="
M119.952499,78.682350 
	C119.505562,79.047432 119.075630,79.031555 118.322540,79.007843 
	C114.764801,76.343285 111.677383,78.093857 108.267029,79.164963 
	C106.615143,76.313850 108.450829,74.614021 110.286667,73.614632 
	C112.422768,72.451797 115.169189,72.247589 117.146324,73.999481 
	C118.357590,75.072746 120.096291,76.185890 119.952499,78.682350 
z"/>
<path fill="#FDC285" opacity="1.000000" stroke="none" 
	d="
M107.964111,79.343605 
	C111.119873,77.498718 114.131378,73.757912 117.846481,78.686905 
	C115.146362,79.222366 112.037636,78.165672 109.299911,80.841309 
	C108.784096,81.008759 108.609383,81.005875 108.171707,80.993744 
	C107.927971,80.547020 107.947205,80.109558 107.964111,79.343605 
z"/>
<path fill="#F6AA64" opacity="1.000000" stroke="none" 
	d="
M117.207237,106.781830 
	C116.061440,109.711342 113.524529,110.889618 111.515945,112.959885 
	C110.771172,113.350441 110.294044,113.506958 109.404236,113.495850 
	C106.368805,111.511749 107.432991,109.611839 109.309509,107.441460 
	C111.296082,106.481308 113.066689,105.860992 115.216187,105.263947 
	C116.351418,105.363777 116.988922,105.674721 117.207237,106.781830 
z"/>
<path fill="#E7A05B" opacity="1.000000" stroke="none" 
	d="
M117.342270,106.931000 
	C116.599777,106.773994 116.113396,106.411858 115.311417,106.019066 
	C114.246170,105.394180 113.953117,104.601234 113.992020,103.337257 
	C114.715233,101.608406 115.821510,100.450150 117.403580,100.872162 
	C118.400330,101.138054 117.786316,102.582718 118.042000,103.831451 
	C117.936630,105.029480 117.767509,105.877670 117.342270,106.931000 
z"/>
<path fill="#EFAB67" opacity="1.000000" stroke="none" 
	d="
M108.812889,113.379608 
	C109.499336,113.012352 109.988983,113.019363 110.845261,113.054665 
	C110.854912,113.535721 110.497940,113.988495 110.106155,114.732010 
	C110.071358,115.022758 109.672371,115.136681 109.468033,115.172577 
	C108.772659,114.846115 108.556900,114.361198 108.812889,113.379608 
z"/>
<path fill="#F5A76A" opacity="1.000000" stroke="none" 
	d="
M93.999329,103.373901 
	C93.180954,103.045685 92.669670,102.865616 91.997879,102.460678 
	C89.604607,98.526840 91.845123,96.488953 94.943665,94.424278 
	C95.429596,94.059219 95.636597,93.937286 96.183365,93.720558 
	C98.555939,93.873795 100.569954,95.619812 102.927307,93.547272 
	C105.723137,93.307198 108.076233,92.222206 110.947281,92.445663 
	C114.967583,95.094292 113.525032,97.769295 111.291344,100.766914 
	C110.794502,104.136032 108.204979,104.470474 106.030441,105.606827 
	C104.928436,107.201881 103.562042,106.680161 101.854042,106.462067 
	C100.511536,105.978035 100.725555,105.243439 101.187943,104.190018 
	C102.349335,102.389862 105.744484,102.508194 105.095711,100.686890 
	C104.182541,98.123390 101.118546,99.525513 98.644493,99.244644 
	C95.744545,99.135262 95.890594,101.231430 95.182175,103.067230 
	C94.741760,103.391006 94.524094,103.456528 93.999329,103.373901 
z"/>
<path fill="#EDA15B" opacity="1.000000" stroke="none" 
	d="
M111.405022,101.017731 
	C110.101524,98.551834 114.700821,96.203758 111.136917,93.307480 
	C109.141861,91.233429 106.478348,92.960014 104.281006,91.250526 
	C105.090569,87.344788 108.133133,89.719315 110.595093,88.981758 
	C112.783768,87.315887 115.221420,87.855377 117.606110,86.980400 
	C118.379700,86.894501 118.794327,86.883041 119.516357,86.848251 
	C118.327087,92.218246 117.837433,98.186302 111.405022,101.017731 
z"/>
<path fill="#EDA55A" opacity="1.000000" stroke="none" 
	d="
M108.880936,112.703506 
	C109.039543,113.498375 109.069397,113.991417 109.181465,114.846466 
	C109.263687,115.208473 109.246483,115.177567 109.229919,115.178009 
	C103.692032,117.547409 103.608658,111.981201 101.116180,109.353874 
	C101.548462,108.525749 102.121063,108.069382 102.877365,107.400452 
	C103.619499,106.361977 104.464729,106.541039 105.621643,106.759171 
	C107.107269,106.740486 108.235298,106.521835 109.692383,106.182861 
	C110.163773,106.220474 110.306122,106.378418 110.235657,106.773926 
	C110.387047,108.993919 107.096336,110.114746 108.880936,112.703506 
z"/>
<path fill="#EFAB67" opacity="1.000000" stroke="none" 
	d="
M110.311310,107.132317 
	C110.022858,107.011482 110.015442,106.536308 110.018433,106.299416 
	C111.155594,105.130066 112.289764,104.197617 113.711304,103.136482 
	C114.904472,103.529724 114.994125,104.403679 114.995087,105.652298 
	C113.555275,106.496246 112.605156,108.708679 110.311310,107.132317 
z"/>
<path fill="#AE6A2C" opacity="1.000000" stroke="none" 
	d="
M105.984970,106.689774 
	C105.247787,106.999214 104.516342,107.039307 103.422981,107.133636 
	C100.342812,107.128754 97.624557,107.069626 94.456299,106.981247 
	C94.001671,106.552582 93.997047,106.153152 93.982727,105.453873 
	C96.140160,103.538506 98.334938,104.688599 100.877197,105.333084 
	C102.552895,105.690033 103.873611,105.802414 105.594894,105.898193 
	C105.993874,106.061195 105.992287,106.240807 105.984970,106.689774 
z"/>
<path fill="#030E28" opacity="1.000000" stroke="none" 
	d="
M82.783585,125.770950 
	C84.363403,126.215378 86.012459,126.469734 85.407005,128.275146 
	C85.034889,129.384796 83.788330,128.668655 82.845253,128.303680 
	C77.453514,126.217094 71.972839,124.633812 66.064941,124.924133 
	C64.753494,124.988579 61.901154,126.265198 62.861969,122.359726 
	C68.142235,122.137199 72.381584,119.083328 77.559227,117.959961 
	C78.325035,118.231277 78.627449,118.591087 78.936440,119.364166 
	C78.891701,122.434738 80.498337,124.121010 82.783585,125.770950 
z"/>
<path fill="#0E0914" opacity="1.000000" stroke="none" 
	d="
M78.293617,120.219429 
	C78.001839,119.531883 77.994476,119.076881 77.963623,118.280174 
	C77.944298,117.521690 77.948456,117.104927 77.937637,116.376419 
	C77.983597,114.372711 81.310570,113.128899 78.288986,111.002731 
	C78.661789,109.513641 79.848625,108.942802 81.744942,108.983467 
	C83.124062,109.943176 84.147934,110.911026 85.462738,111.975700 
	C86.078552,112.218849 86.374519,112.409294 86.810806,112.851997 
	C86.984756,113.052910 86.995552,112.997810 86.972244,113.013458 
	C87.598351,113.422226 88.230904,113.828674 88.113464,115.042076 
	C84.839996,117.092827 82.725655,120.652405 78.293617,120.219429 
z"/>
<path fill="#EFAB67" opacity="1.000000" stroke="none" 
	d="
M100.656830,109.028351 
	C103.187325,109.009186 104.088219,110.632721 104.573753,112.338272 
	C105.165253,114.416023 106.349533,115.250427 108.810577,115.119827 
	C108.543823,115.839592 107.874275,116.500725 107.059586,117.411407 
	C106.660919,118.337021 106.045433,118.460609 105.197891,118.794128 
	C104.943192,118.969505 104.993706,119.001343 104.990883,118.971619 
	C104.301895,119.708992 103.335754,119.377083 102.244820,119.779739 
	C101.985153,119.984879 101.993446,119.996788 101.993919,119.993881 
	C100.918716,120.434044 100.037201,121.436638 98.343689,121.186462 
	C97.683823,121.055511 97.382790,120.871399 96.979408,120.442207 
	C96.956200,118.607613 98.034004,117.175095 96.780754,115.383720 
	C95.640129,113.753334 96.983780,112.398109 98.729797,111.243019 
	C99.060722,110.095009 99.298378,109.300430 100.656830,109.028351 
z"/>
<path fill="#DE9C58" opacity="1.000000" stroke="none" 
	d="
M98.571709,111.005463 
	C97.240021,113.778519 96.398972,116.364655 100.602402,117.612106 
	C100.063675,119.624542 98.102707,118.566803 97.089912,119.908707 
	C94.501640,118.790962 92.126221,117.384796 89.400681,115.931046 
	C88.857925,115.767105 88.665283,115.650742 88.416817,115.201447 
	C87.981506,114.428429 87.602028,113.988342 87.085739,113.288681 
	C90.689026,112.357445 94.429108,111.685776 98.571709,111.005463 
z"/>
<path fill="#DE9C58" opacity="1.000000" stroke="none" 
	d="
M86.852196,112.810379 
	C86.660477,112.890320 86.336189,112.727730 85.882797,112.318832 
	C86.075661,112.237633 86.397652,112.402740 86.852196,112.810379 
z"/>
<path fill="#D98E47" opacity="1.000000" stroke="none" 
	d="
M80.902969,95.384964 
	C80.910019,94.962433 80.955643,94.772110 80.994072,94.288254 
	C79.297073,89.409142 80.676468,84.402084 79.051750,79.389069 
	C79.628189,78.449509 80.294220,78.264214 81.376190,78.484024 
	C83.236465,79.761604 82.647041,81.517311 83.035995,83.331451 
	C83.358047,85.649292 85.525833,85.946945 86.583832,87.677979 
	C87.746239,92.132370 90.901039,95.803490 89.262756,100.740250 
	C86.351204,99.954559 85.464394,96.445633 81.886566,96.259163 
	C81.232430,96.171425 81.041832,95.929962 80.902969,95.384964 
z"/>
<path fill="#EB9B54" opacity="1.000000" stroke="none" 
	d="
M89.192245,101.260986 
	C89.217056,96.450958 86.803818,92.618370 85.775391,88.228577 
	C87.465698,86.738861 88.772850,87.232582 90.194733,88.756989 
	C90.589897,91.878998 92.604034,92.695732 95.459061,93.592453 
	C95.939354,97.174149 90.367134,97.317307 91.893356,101.810394 
	C91.019424,101.998192 90.201477,101.760551 89.192245,101.260986 
z"/>
<path fill="#E39C5F" opacity="1.000000" stroke="none" 
	d="
M101.330780,105.375076 
	C99.026840,106.230232 96.886620,105.856918 94.369759,105.160645 
	C93.921295,104.722206 93.869545,104.290382 93.755020,103.542160 
	C93.909912,103.173920 94.127594,103.122093 94.678192,103.027542 
	C95.643097,102.458557 96.339806,102.060707 97.564072,101.859711 
	C99.377396,101.836853 100.689018,102.109863 101.873627,103.579597 
	C101.849922,104.353111 101.639656,104.762810 101.330780,105.375076 
z"/>
<path fill="#D98E47" opacity="1.000000" stroke="none" 
	d="
M79.355225,75.240158 
	C79.024879,73.612213 79.001694,72.201752 78.944702,70.367355 
	C78.910881,69.943436 78.935081,69.934082 78.937866,69.923187 
	C79.879631,69.204514 80.915916,68.930122 82.455597,69.371277 
	C83.515480,70.091599 83.765266,70.840057 83.731895,72.081741 
	C83.325844,73.509964 82.554886,74.215797 81.464134,75.134613 
	C80.664696,75.539383 80.169029,75.575417 79.355225,75.240158 
z"/>
<path fill="#EB9B54" opacity="1.000000" stroke="none" 
	d="
M73.858803,70.046959 
	C74.589050,70.173798 75.017082,70.510658 75.696198,70.955978 
	C75.680672,72.201843 75.414062,73.339233 75.203598,74.832916 
	C75.259727,75.189209 75.180260,75.540108 75.195923,75.719368 
	C74.757881,76.201843 74.304169,76.505058 73.577164,76.753944 
	C73.154625,75.729424 73.005379,74.759232 72.785507,73.424026 
	C72.995453,72.124992 73.276024,71.190987 73.858803,70.046959 
z"/>
<path fill="#EB9A52" opacity="1.000000" stroke="none" 
	d="
M79.029938,75.417175 
	C79.484047,75.016373 79.920021,75.010056 80.683464,75.000549 
	C81.475288,74.805832 81.891640,74.892403 82.455284,75.511276 
	C82.885155,76.492287 82.904747,77.186684 82.323334,78.436584 
	C81.194832,78.983414 80.483643,78.983337 79.418579,78.976021 
	C79.047073,77.916405 79.029442,76.864044 79.029938,75.417175 
z"/>
<path fill="#FBC47E" opacity="1.000000" stroke="none" 
	d="
M98.799057,62.716599 
	C99.001511,62.993801 98.999771,63.491898 98.998108,63.740944 
	C98.817703,64.148048 98.638977,64.306114 98.109833,64.543320 
	C96.781883,64.622887 95.875549,64.298126 94.620781,63.890667 
	C92.383484,62.687702 90.177055,62.407818 87.992615,61.158455 
	C89.849342,56.602562 88.773041,51.221340 92.684036,47.210361 
	C92.938644,46.925579 92.840065,46.843758 92.844330,46.778862 
	C93.630936,46.800312 94.413277,46.886662 95.589500,46.982582 
	C96.443001,46.995903 96.901955,46.980255 97.701630,46.898399 
	C100.149048,47.309589 102.255096,47.767586 104.718925,48.447800 
	C103.869507,51.053154 102.247330,49.251133 100.770142,49.123219 
	C98.702484,48.944172 96.481949,49.347351 95.388817,51.002106 
	C94.372513,52.540562 94.786041,54.573414 96.620338,55.825531 
	C97.385864,56.348087 97.957695,57.041790 96.997566,57.755547 
	C92.563316,61.051960 97.653732,61.025585 98.799057,62.716599 
z"/>
<path fill="#723812" opacity="1.000000" stroke="none" 
	d="
M87.780609,60.627522 
	C90.143921,61.392498 92.660080,60.679821 94.593842,62.967461 
	C95.914360,65.632217 94.228394,67.031395 92.461761,66.372253 
	C88.622345,64.939743 84.573662,66.086960 80.461044,64.539825 
	C79.864777,62.960808 80.655457,62.185741 81.829041,61.231354 
	C83.410515,60.945881 84.798485,60.944019 86.600021,60.887314 
	C87.181717,60.705719 87.349823,60.578972 87.780609,60.627522 
z"/>
<path fill="#F9B264" opacity="1.000000" stroke="none" 
	d="
M88.224792,60.508064 
	C87.872803,60.838936 87.702301,60.875061 87.272705,60.871826 
	C85.766205,56.512451 89.093559,52.976418 89.071030,48.454475 
	C89.850632,46.904430 91.101944,47.055565 92.584518,46.900394 
	C90.192764,50.933540 92.192032,56.560043 88.224792,60.508064 
z"/>
<path fill="#B26A33" opacity="1.000000" stroke="none" 
	d="
M80.076920,64.653610 
	C84.123634,64.020660 88.182465,63.091816 92.015671,65.321609 
	C93.593781,66.239609 94.417358,65.272751 94.893188,63.482796 
	C95.841789,62.890923 96.656624,63.130001 97.688278,63.864655 
	C98.553070,65.006485 98.328629,66.090691 98.288391,67.478622 
	C96.400818,70.413109 94.240852,71.526474 91.078018,69.095886 
	C89.451225,68.348755 88.177628,67.352219 86.433960,68.552864 
	C86.035629,69.211235 85.780907,69.573578 85.245415,70.142960 
	C84.552658,70.533478 84.106094,70.571335 83.351440,70.324821 
	C81.958679,70.088493 80.862930,70.024033 79.353920,69.935928 
	C79.311333,68.276794 79.682007,66.641289 80.076920,64.653610 
z"/>
<path fill="#F9B264" opacity="1.000000" stroke="none" 
	d="
M97.871857,46.646217 
	C97.652534,47.608505 97.148560,48.039646 96.138138,47.226753 
	C96.376953,46.251209 96.917038,45.966663 97.871857,46.646217 
z"/>
<path fill="#02051E" opacity="1.000000" stroke="none" 
	d="
M87.964981,114.911865 
	C88.680023,114.941673 88.878929,115.137115 89.004135,115.669159 
	C89.033501,117.036957 88.958954,118.193069 89.011414,119.343391 
	C89.118675,121.695518 88.815941,123.251976 85.735397,122.214951 
	C84.837074,121.912544 82.599785,120.823982 82.768814,123.782425 
	C83.010628,124.446404 83.011322,124.889763 83.017044,125.665619 
	C80.063889,125.505600 77.285477,124.839523 78.005844,120.392853 
	C81.918358,119.682457 83.633392,115.209404 87.964981,114.911865 
z"/>
<path fill="#09142D" opacity="1.000000" stroke="none" 
	d="
M102.327438,119.987289 
	C102.412392,118.824249 103.563156,119.414597 104.648468,118.983299 
	C104.490868,119.900925 103.597488,119.983368 102.327438,119.987289 
z"/>
<path fill="#09142D" opacity="1.000000" stroke="none" 
	d="
M105.271820,118.946510 
	C105.398376,118.577164 105.853561,118.184814 106.611588,117.726715 
	C106.476440,118.081810 106.038452,118.502663 105.271820,118.946510 
z"/>
<path fill="#EC984C" opacity="1.000000" stroke="none" 
	d="
M90.885513,68.162880 
	C93.443581,69.779526 95.564018,69.806465 97.698204,67.344444 
	C98.056122,66.971588 98.237518,66.857483 98.714607,66.869484 
	C99.023346,67.736496 99.036392,68.477394 99.074432,69.587074 
	C98.846687,73.600204 98.735168,77.282623 96.130623,80.663254 
	C95.389153,81.602943 94.667595,81.763252 93.506653,81.552658 
	C92.761810,81.100731 92.470856,80.709000 92.234894,79.879913 
	C93.256439,76.141342 91.047195,74.103195 88.906876,71.675385 
	C88.681252,71.165871 88.625969,70.948143 88.616356,70.397232 
	C89.097450,69.250343 89.782715,68.701195 90.885513,68.162880 
z"/>
<path fill="#FBB065" opacity="1.000000" stroke="none" 
	d="
M99.244308,66.829895 
	C98.820824,67.003220 98.631355,67.010857 98.158295,67.052094 
	C96.769066,66.278152 97.222008,65.429390 97.897575,64.293137 
	C98.155052,64.004990 98.323326,64.000809 98.744019,63.993309 
	C99.237854,64.866829 100.212234,65.611595 99.244308,66.829895 
z"/>
<path fill="#F6AA64" opacity="1.000000" stroke="none" 
	d="
M92.776962,80.855988 
	C93.810867,80.985939 94.527985,80.988266 95.602585,80.988976 
	C96.131462,80.990768 96.302864,80.994171 96.731270,80.999252 
	C96.250076,84.371101 98.045372,87.187195 99.008148,90.576225 
	C98.843468,91.132713 98.668144,91.300667 98.151703,91.595360 
	C97.327538,91.763893 96.852600,91.722923 96.078766,91.407288 
	C94.626472,90.129463 93.900391,87.836067 91.408157,90.005249 
	C90.909012,90.257713 90.683731,90.303398 90.238571,90.083488 
	C89.293083,88.476761 88.147530,87.912430 86.306564,87.997368 
	C84.961136,86.565849 82.211456,87.095512 82.171455,84.256638 
	C84.528038,82.697113 86.416214,85.114464 88.976936,84.697090 
	C90.447517,84.654419 91.281418,84.269173 91.319855,82.614639 
	C91.474487,81.595406 91.796997,81.040337 92.776962,80.855988 
z"/>
<path fill="#EE8C4F" opacity="1.000000" stroke="none" 
	d="
M97.744858,91.252670 
	C98.137299,91.022606 98.313492,91.010796 98.754234,90.981873 
	C100.362717,92.453934 101.931114,92.099464 103.765335,91.254623 
	C106.237198,91.336624 108.784248,90.128105 110.813843,92.672409 
	C108.503708,92.825951 106.447136,95.774605 103.382294,93.992172 
	C101.383415,95.262405 99.619682,95.105423 97.412399,94.241714 
	C96.843597,94.013771 96.674332,94.009415 96.251022,94.005539 
	C95.996994,94.006020 95.972733,93.925140 95.958618,93.885345 
	C95.647766,92.503807 96.807838,92.133888 97.744858,91.252670 
z"/>
<path fill="#FDC285" opacity="1.000000" stroke="none" 
	d="
M117.688385,86.637421 
	C116.713768,89.940536 114.043434,88.792244 111.424530,88.978317 
	C111.009773,88.232544 110.999420,87.496086 110.982941,86.391571 
	C113.121780,86.138649 115.266747,86.253769 117.688385,86.637421 
z"/>
<path fill="#FDC285" opacity="1.000000" stroke="none" 
	d="
M99.036331,80.348526 
	C100.683655,78.810646 102.195885,79.326622 103.837265,80.727478 
	C103.844528,81.816399 104.386826,83.281914 103.106697,83.258057 
	C101.425774,83.226723 99.529640,82.934464 99.036331,80.348526 
z"/>
<path fill="#FDBB84" opacity="1.000000" stroke="none" 
	d="
M102.416245,103.910095 
	C100.948814,103.611946 99.837425,103.280472 98.375168,102.929535 
	C96.904625,101.644066 96.721336,100.255241 97.742088,98.378922 
	C99.150948,98.007607 100.295601,98.009598 101.439926,97.991562 
	C103.916916,97.952560 107.028557,97.690613 107.470543,100.715767 
	C107.892845,103.606186 104.411125,102.841240 102.416245,103.910095 
z"/>
<path fill="#FCB47A" opacity="1.000000" stroke="none" 
	d="
M97.641815,98.013245 
	C98.007690,99.376526 98.008934,100.738358 98.017242,102.505127 
	C97.270844,102.936882 96.517395,102.963692 95.387520,102.987656 
	C94.595619,100.793617 93.081436,98.101768 97.641815,98.013245 
z"/>
<path fill="#FEB087" opacity="1.000000" stroke="none" 
	d="
M97.185455,94.336334 
	C98.727699,94.003113 100.442520,93.988113 102.587204,93.982147 
	C101.522705,97.556183 99.451843,96.203178 97.185455,94.336334 
z"/>
<path fill="#FEC283" opacity="1.000000" stroke="none" 
	d="
M93.071426,80.647232 
	C92.751953,81.452087 92.410149,81.920555 92.047073,82.694183 
	C91.902832,84.107307 91.138878,84.813690 90.205406,85.765854 
	C87.337646,86.371490 84.993439,85.648834 82.536697,83.981102 
	C81.011200,82.542328 82.154152,81.055519 81.936447,79.310379 
	C81.906029,78.983482 82.000145,79.025360 82.050797,79.034698 
	C84.196213,76.825035 86.860100,76.626953 90.060478,77.000160 
	C91.252502,77.332382 91.944153,77.746017 92.785713,78.649963 
	C93.045540,79.411522 93.047325,79.861183 93.071426,80.647232 
z"/>
<path fill="#DA7236" opacity="1.000000" stroke="none" 
	d="
M97.646355,91.000214 
	C98.053581,92.256218 97.219460,92.836334 96.139977,93.613724 
	C93.126892,94.103668 90.254898,94.459656 89.916245,90.128845 
	C90.018692,89.817894 90.474831,89.839699 90.702316,89.820068 
	C92.522446,89.227219 93.995415,89.602959 95.748672,90.573318 
	C96.495796,90.842010 96.913696,90.904007 97.646355,91.000214 
z"/>
<path fill="#F6AA64" opacity="1.000000" stroke="none" 
	d="
M93.181656,78.649490 
	C92.479599,78.802925 91.915443,78.643997 91.179909,78.238770 
	C88.671371,74.811661 85.405228,76.693954 82.275391,76.225914 
	C81.909973,75.692696 81.720459,75.428200 81.230789,75.109283 
	C81.083359,74.100945 81.324394,73.320908 82.653320,73.020836 
	C83.491478,72.516563 83.951920,71.998131 84.783875,71.376030 
	C86.157097,70.738914 87.207985,70.154083 88.721085,70.768105 
	C91.066681,73.066711 95.028481,74.034119 93.181656,78.649490 
z"/>
<path fill="#EB9A52" opacity="1.000000" stroke="none" 
	d="
M85.221649,71.737366 
	C84.529465,72.325630 84.051003,72.638672 83.270508,72.959625 
	C82.985573,72.262161 83.002663,71.556793 83.037094,70.502182 
	C83.486740,70.151711 83.919052,70.150467 84.675476,70.173203 
	C85.315613,70.560005 85.460869,70.981659 85.221649,71.737366 
z"/>
<path fill="#FDB775" opacity="1.000000" stroke="none" 
	d="
M82.014908,76.393066 
	C85.048470,76.038460 88.725151,71.552986 90.971001,77.643524 
	C88.229713,77.730690 85.549599,78.263535 82.498131,79.022171 
	C82.071167,78.286499 82.040894,77.528954 82.014908,76.393066 
z"/>
<path fill="#5D2616" opacity="1.000000" stroke="none" 
	d="
M90.997009,67.765030 
	C90.850334,68.828033 90.573624,69.655899 89.303299,69.968674 
	C87.481705,70.477295 86.331902,69.933365 85.226357,68.431107 
	C86.473946,64.211914 88.825211,67.401176 90.997009,67.765030 
z"/>
<path fill="#D98E47" opacity="1.000000" stroke="none" 
	d="
M85.017136,68.510269 
	C86.147583,68.696945 87.297241,69.219086 88.724808,69.903450 
	C89.002716,70.065666 89.000214,70.526436 88.998138,70.756660 
	C87.896400,71.306969 86.796730,71.627060 85.352501,71.979874 
	C85.001442,71.607628 84.994949,71.202660 84.994026,70.497444 
	C85.011841,69.746712 85.024094,69.296227 85.017136,68.510269 
z"/>
<path fill="#EB9B54" opacity="1.000000" stroke="none" 
	d="
M96.045677,90.428238 
	C94.527740,91.028778 93.000862,91.102768 91.267883,89.992676 
	C91.085144,88.754654 90.828781,87.273788 92.352394,87.236717 
	C94.180473,87.192253 95.766060,87.880051 96.045677,90.428238 
z"/>
<path fill="#FDB775" opacity="1.000000" stroke="none" 
	d="
M90.309807,85.958435 
	C90.001526,84.825623 90.453369,83.905846 91.733185,83.136795 
	C93.748436,85.013458 91.970558,85.370735 90.309807,85.958435 
z"/>
</svg>